<svg width="867" height="1024" viewBox="0 0 867 1024" fill="none" xmlns="http://www.w3.org/2000/svg">
<path d="M719.836 528C719.836 526.994 719.832 525.988 719.826 524.983L718.326 524.993C718.314 522.989 718.289 520.988 718.253 518.991L719.752 518.963C719.716 516.96 719.666 514.959 719.605 512.961L718.106 513.007C718.045 511.016 717.971 509.027 717.886 507.042L719.385 506.977C719.299 504.978 719.201 502.982 719.091 500.989L717.593 501.071C717.482 499.071 717.359 497.074 717.224 495.081L718.721 494.979C718.585 492.979 718.438 490.983 718.278 488.99L716.783 489.11C716.623 487.123 716.452 485.14 716.269 483.16L717.762 483.021C717.578 481.03 717.381 479.042 717.172 477.057L715.681 477.214C715.471 475.222 715.249 473.234 715.016 471.25L716.505 471.074C716.271 469.084 716.024 467.097 715.766 465.114L714.278 465.308C714.02 463.331 713.75 461.357 713.469 459.388L714.953 459.176C714.67 457.196 714.375 455.22 714.067 453.249L712.585 453.48C712.277 451.502 711.957 449.528 711.624 447.557L713.103 447.308C712.77 445.332 712.424 443.359 712.067 441.391L710.591 441.66C710.235 439.698 709.866 437.74 709.486 435.787L710.959 435.5C710.577 433.537 710.183 431.578 709.777 429.624L708.308 429.929C707.901 427.97 707.483 426.015 707.052 424.064L708.517 423.741C708.085 421.784 707.641 419.832 707.185 417.884L705.725 418.226C705.271 416.284 704.805 414.347 704.327 412.414L705.783 412.054C705.303 410.113 704.811 408.176 704.308 406.243L702.856 406.622C702.352 404.686 701.836 402.755 701.308 400.829L702.754 400.432C702.225 398.5 701.683 396.573 701.13 394.65L699.689 395.065C699.138 393.149 698.575 391.237 698.001 389.331L699.437 388.898C698.86 386.983 698.271 385.072 697.671 383.167L696.24 383.617C695.639 381.71 695.027 379.808 694.403 377.911L695.828 377.443C695.202 375.54 694.565 373.643 693.916 371.75L692.497 372.237C691.85 370.351 691.192 368.47 690.523 366.594L691.935 366.09C691.263 364.205 690.578 362.326 689.883 360.452L688.477 360.974C687.781 359.1 687.074 357.232 686.356 355.37L687.756 354.83C687.035 352.962 686.303 351.099 685.56 349.242L684.168 349.799C683.427 347.947 682.675 346.102 681.912 344.262L683.298 343.687C682.531 341.838 681.753 339.995 680.964 338.158L679.586 338.75C678.797 336.914 677.998 335.084 677.187 333.26L678.558 332.651C677.745 330.821 676.921 328.998 676.086 327.18L674.723 327.807C673.89 325.995 673.047 324.189 672.192 322.389L673.547 321.746C672.689 319.938 671.819 318.135 670.939 316.339L669.592 316.999C668.713 315.206 667.823 313.419 666.922 311.638L668.26 310.961C667.357 309.175 666.443 307.395 665.517 305.621L664.187 306.315C663.265 304.547 662.332 302.786 661.389 301.031L662.71 300.321C661.762 298.557 660.803 296.8 659.834 295.05L658.521 295.776C657.554 294.03 656.576 292.29 655.588 290.556L656.891 289.813C655.899 288.075 654.897 286.343 653.885 284.618L652.591 285.377C651.582 283.658 650.562 281.945 649.532 280.239L650.816 279.464C649.781 277.749 648.735 276.042 647.679 274.342L646.405 275.133C645.352 273.437 644.289 271.749 643.215 270.067L644.479 269.26C643.403 267.573 642.316 265.893 641.218 264.221L639.964 265.044C638.87 263.376 637.766 261.716 636.652 260.064L637.896 259.225C636.777 257.565 635.648 255.911 634.508 254.266L633.275 255.119C632.139 253.479 630.993 251.845 629.838 250.219L631.06 249.35C629.901 247.719 628.731 246.095 627.552 244.48L626.341 245.364C625.165 243.753 623.98 242.149 622.785 240.554L623.985 239.654C622.785 238.052 621.575 236.457 620.356 234.87L619.166 235.784C617.95 234.201 616.725 232.627 615.49 231.061L616.668 230.132C615.429 228.56 614.18 226.997 612.923 225.441L611.756 226.385C610.502 224.834 609.238 223.291 607.965 221.756L609.12 220.798C607.842 219.258 606.554 217.725 605.258 216.2L604.115 217.172C602.822 215.653 601.52 214.141 600.209 212.638L601.34 211.652C600.024 210.144 598.7 208.644 597.366 207.153L596.248 208.153C594.918 206.666 593.579 205.187 592.231 203.717L593.337 202.703C591.985 201.228 590.623 199.761 589.252 198.303L588.159 199.33C586.793 197.877 585.418 196.431 584.034 194.995L585.114 193.954C583.726 192.513 582.328 191.081 580.922 189.657L579.855 190.711C578.453 189.292 577.043 187.881 575.623 186.48L576.677 185.412C575.254 184.006 573.821 182.609 572.38 181.221L571.34 182.301C569.903 180.917 568.458 179.541 567.004 178.175L568.032 177.082C566.573 175.712 565.107 174.35 563.631 172.998L562.618 174.103C561.148 172.755 559.669 171.416 558.182 170.087L559.182 168.969C557.69 167.635 556.191 166.31 554.683 164.995L553.697 166.125C552.193 164.814 550.682 163.512 549.162 162.22L550.134 161.077C548.609 159.78 547.077 158.493 545.536 157.215L544.578 158.37C543.044 157.096 541.501 155.833 539.95 154.578L540.893 153.412C539.337 152.154 537.774 150.906 536.202 149.667L535.274 150.845C533.707 149.61 532.133 148.384 530.551 147.168L531.465 145.979C529.878 144.759 528.283 143.549 526.68 142.349L525.781 143.55C524.185 142.355 522.582 141.169 520.971 139.994L521.855 138.782C520.239 137.603 518.615 136.434 516.984 135.275L516.115 136.497C514.489 135.341 512.856 134.195 511.215 133.06L512.069 131.826C510.423 130.687 508.77 129.558 507.109 128.438L506.271 129.682C504.618 128.568 502.958 127.464 501.291 126.371L502.113 125.116C500.441 124.019 498.761 122.932 497.074 121.855L496.267 123.12C494.586 122.046 492.897 120.983 491.201 119.93L491.992 118.655C490.292 117.6 488.585 116.554 486.871 115.519L486.095 116.803C484.39 115.773 482.677 114.753 480.957 113.744L481.716 112.45C479.991 111.438 478.259 110.436 476.521 109.444L475.778 110.747C474.045 109.759 472.305 108.781 470.558 107.813L471.285 106.501C469.534 105.532 467.777 104.573 466.014 103.625L465.303 104.946C463.548 104.002 461.787 103.07 460.019 102.147L460.713 100.817C458.939 99.8924 457.159 98.978 455.373 98.0744L454.696 99.4129C452.915 98.5122 451.128 97.6223 449.335 96.7432L449.995 95.3963C448.199 94.5158 446.397 93.6463 444.588 92.7876L443.945 94.1426C442.145 93.2883 440.339 92.4448 438.527 91.6122L439.154 90.2492C437.336 89.4141 435.513 88.5899 433.683 87.7768L433.074 89.1475C431.25 88.337 429.42 87.5375 427.584 86.7491L428.176 85.3708C426.339 84.5817 424.496 83.8038 422.647 83.037L422.072 84.4226C420.232 83.6597 418.387 82.9078 416.535 82.1672L417.092 80.7745C415.235 80.0315 413.372 79.2998 411.504 78.5793L410.964 79.9789C409.102 79.2607 407.233 78.5538 405.36 77.8583L405.882 76.452C404.008 75.7565 402.129 75.0723 400.244 74.3995L399.74 75.8122C397.864 75.1427 395.983 74.4845 394.097 73.8377L394.583 72.4188C392.691 71.77 390.794 71.1327 388.891 70.5069L388.422 71.9318C386.526 71.3079 384.624 70.6956 382.716 70.0948L383.167 68.6641C381.262 68.0639 379.351 67.4752 377.436 66.8981L377.003 68.3344C375.096 67.76 373.185 67.1972 371.269 66.646L371.683 65.2045C369.761 64.6515 367.833 64.1103 365.901 63.5807L365.505 65.0274C363.579 64.4995 361.648 63.9834 359.712 63.479L360.09 62.0274C358.158 61.5239 356.221 61.0321 354.279 60.5521L353.919 62.0083C351.987 61.5305 350.05 61.0645 348.108 60.6102L348.45 59.1497C346.502 58.694 344.55 58.2501 342.593 57.8182L342.27 59.2829C340.319 58.8523 338.364 58.4336 336.404 58.0268L336.709 56.5581C334.755 56.1524 332.796 55.7585 330.833 55.3766L330.547 56.8489C328.593 56.4688 326.636 56.1006 324.674 55.7442L324.942 54.2684C322.974 53.9109 321.002 53.5654 319.025 53.2319L318.776 54.711C316.806 54.3786 314.832 54.0582 312.853 53.7499L313.084 52.2678C311.113 51.9605 309.137 51.6651 307.158 51.3818L306.945 52.8667C304.976 52.5848 303.003 52.3149 301.026 52.057L301.22 50.5696C299.237 50.3109 297.25 50.0643 295.259 49.8299L295.084 51.3196C293.099 51.0858 291.111 50.8642 289.119 50.6547L289.276 49.1629C287.292 48.9543 285.303 48.7576 283.312 48.5731L283.174 50.0667C281.194 49.8833 279.21 49.7119 277.223 49.5526L277.343 48.0574C275.35 47.8976 273.354 47.75 271.354 47.6145L271.252 49.1111C269.259 48.9761 267.262 48.8532 265.262 48.7426L265.344 47.2449C263.351 47.1347 261.355 47.0366 259.356 46.9507L259.291 48.4493C257.306 48.364 255.317 48.2908 253.326 48.2297L253.372 46.7304C251.374 46.6691 249.373 46.62 247.37 46.5831L247.342 48.0828C245.344 48.0461 243.344 48.0215 241.34 48.0092L241.35 46.5092C240.345 46.5031 239.34 46.5 238.334 46.5C237.328 46.5 236.322 46.5031 235.317 46.5093L235.326 48.0092C233.323 48.0215 231.322 48.0461 229.325 48.0829L229.297 46.5831C227.293 46.62 225.293 46.6691 223.295 46.7304L223.341 48.2297C221.349 48.2908 219.361 48.364 217.376 48.4493L217.311 46.9507C215.312 47.0366 213.315 47.1347 211.322 47.2449L211.405 48.7426C209.405 48.8532 207.408 48.9761 205.414 49.1111L205.313 47.6146C203.313 47.75 201.317 47.8977 199.324 48.0575L199.444 49.5527C197.457 49.712 195.473 49.8834 193.493 50.0668L193.355 48.5732C191.363 48.7577 189.375 48.9543 187.391 49.163L187.548 50.6548C185.556 50.8643 183.568 51.0859 181.584 51.3196L181.408 49.8299C179.417 50.0644 177.431 50.311 175.447 50.5697L175.641 52.0571C173.664 52.315 171.691 52.5849 169.722 52.8667L169.509 51.3819C167.53 51.6652 165.554 51.9605 163.583 52.2679L163.814 53.75C161.836 54.0583 159.861 54.3787 157.891 54.7111L157.642 53.232C155.666 53.5655 153.693 53.911 151.725 54.2685L151.993 55.7443C150.032 56.1007 148.074 56.4689 146.12 56.849L145.834 55.3767C143.871 55.7586 141.912 56.1525 139.958 56.5582L140.263 58.0269C138.304 58.4337 136.348 58.8524 134.398 59.283L134.074 57.8183C132.118 58.2502 130.165 58.6941 128.218 59.1498L128.559 60.6103C126.618 61.0646 124.681 61.5306 122.748 62.0084L122.388 60.5522C120.447 61.0322 118.51 61.524 116.577 62.0275L116.956 63.479C115.02 63.9834 113.089 64.4996 111.163 65.0275L110.766 63.5808C108.834 64.1104 106.907 64.6516 104.984 65.2045L105.399 66.6461C103.483 67.1973 101.571 67.7601 99.6647 68.3344L99.2321 66.8982C97.3165 67.4753 95.406 68.064 93.5005 68.6642L93.9512 70.0949C92.0441 70.6957 90.1421 71.308 88.2454 71.9318L87.7767 70.5069C85.874 71.1327 83.9765 71.7701 82.0843 72.4189L82.5709 73.8378C80.6846 74.4846 78.8037 75.1427 76.9282 75.8123L76.4239 74.3996C74.5392 75.0724 72.66 75.7565 70.7862 76.4521L71.3082 77.8583C69.4345 78.5538 67.5663 79.2607 65.7036 79.9789L65.164 78.5793C63.2955 79.2998 61.4326 80.0315 59.5755 80.7745L60.1327 82.1672C58.2813 82.9078 56.4357 83.6597 54.5959 84.4226L54.0213 83.0371C52.1723 83.8038 50.3291 84.5817 48.4918 85.3708L49.0837 86.7491C47.2479 87.5374 45.4181 88.337 43.5942 89.1475L42.985 87.7768C41.1554 88.5899 39.3318 89.4141 37.5143 90.2492L38.1406 91.6122C36.3288 92.4448 34.523 93.2882 32.7234 94.1426L32.0801 92.7876C30.2715 93.6462 28.4691 94.5158 26.673 95.3962L27.3332 96.7431C25.5398 97.6222 23.7528 98.5122 21.9721 99.4129L21.295 98.0744C19.5087 98.9779 17.7289 99.8923 15.9554 100.817L16.6492 102.147C14.8813 103.069 13.1199 104.002 11.365 104.946L10.6547 103.625C8.8911 104.573 7.13404 105.532 5.38368 106.501L6.11043 107.813C4.36377 108.781 2.62378 109.759 0.890557 110.747L0.147464 109.444C-1.59118 110.436 -3.32305 111.438 -5.04805 112.45L-4.28875 113.744C-6.00837 114.753 -7.72115 115.773 -9.427 116.803L-10.2024 115.519C-11.9166 116.554 -13.6239 117.599 -15.3241 118.655L-14.5328 119.93C-16.2286 120.983 -17.9173 122.046 -19.5989 123.119L-20.4061 121.855C-22.0929 122.932 -23.7726 124.019 -25.4451 125.116L-24.6223 126.37C-26.2895 127.464 -27.9495 128.568 -29.6022 129.682L-30.4406 128.438C-32.1012 129.558 -33.7544 130.687 -35.4002 131.826L-34.5464 133.059C-36.1873 134.195 -37.8208 135.341 -39.4468 136.497L-40.3159 135.274C-41.9469 136.434 -43.5704 137.603 -45.1863 138.782L-44.3022 139.994C-45.9132 141.169 -47.5165 142.355 -49.1122 143.55L-50.0114 142.349C-51.6141 143.549 -53.209 144.759 -54.7961 145.979L-53.8821 147.168C-55.4643 148.384 -57.0387 149.61 -58.6052 150.845L-59.5339 149.667C-61.1053 150.906 -62.6688 152.154 -64.2243 153.412L-63.281 154.578C-64.832 155.833 -66.3749 157.096 -67.9098 158.369L-68.8674 157.215C-70.4082 158.493 -71.9408 159.78 -73.4653 161.077L-72.4934 162.219C-74.0131 163.512 -75.5247 164.814 -77.028 166.125L-78.014 164.995C-79.522 166.31 -81.0217 167.635 -82.5131 168.968L-81.5132 170.087C-83.0001 171.416 -84.4788 172.755 -85.949 174.103L-86.9626 172.997C-88.4378 174.35 -89.9045 175.711 -91.3627 177.082L-90.3354 178.175C-91.7891 179.541 -93.2342 180.916 -94.6708 182.301L-95.7115 181.22C-97.1525 182.609 -98.5849 184.006 -100.009 185.412L-98.9545 186.479C-100.374 187.881 -101.784 189.292 -103.186 190.711L-104.253 189.657C-105.659 191.081 -107.057 192.513 -108.445 193.954L-107.365 194.995C-108.749 196.431 -110.124 197.876 -111.491 199.33L-112.584 198.303C-113.954 199.761 -115.316 201.228 -116.668 202.703L-115.562 203.717C-116.91 205.187 -118.249 206.665 -119.579 208.152L-120.697 207.152C-122.031 208.644 -123.355 210.144 -124.671 211.652L-123.54 212.638C-124.851 214.141 -126.153 215.652 -127.446 217.172L-128.589 216.2C-129.885 217.725 -131.173 219.257 -132.451 220.798L-131.296 221.756C-132.569 223.291 -133.833 224.834 -135.087 226.385L-136.253 225.441C-137.511 226.997 -138.76 228.56 -139.999 230.132L-138.821 231.06C-140.056 232.627 -141.281 234.201 -142.497 235.784L-143.686 234.87C-144.906 236.457 -146.116 238.052 -147.316 239.654L-146.116 240.553C-147.311 242.149 -148.496 243.753 -149.671 245.363L-150.883 244.479C-152.062 246.095 -153.232 247.719 -154.391 249.35L-153.168 250.219C-154.324 251.845 -155.47 253.478 -156.606 255.119L-157.839 254.266C-158.978 255.911 -160.108 257.565 -161.227 259.225L-159.983 260.063C-161.097 261.716 -162.201 263.376 -163.295 265.043L-164.549 264.221C-165.646 265.893 -166.733 267.573 -167.81 269.26L-166.546 270.067C-167.619 271.748 -168.683 273.437 -169.736 275.133L-171.01 274.342C-172.066 276.042 -173.111 277.749 -174.146 279.463L-172.862 280.239C-173.892 281.945 -174.912 283.657 -175.921 285.377L-177.215 284.618C-178.228 286.343 -179.23 288.075 -180.221 289.813L-178.918 290.556C-179.907 292.29 -180.884 294.03 -181.852 295.776L-183.164 295.049C-184.133 296.8 -185.092 298.557 -186.041 300.32L-184.719 301.031C-185.663 302.786 -186.596 304.547 -187.518 306.315L-188.848 305.621C-189.773 307.395 -190.687 309.175 -191.591 310.961L-190.252 311.638C-191.153 313.419 -192.043 315.206 -192.922 316.999L-194.269 316.339C-195.149 318.135 -196.019 319.937 -196.878 321.746L-195.523 322.389C-196.377 324.189 -197.22 325.995 -198.053 327.807L-199.416 327.18C-200.251 328.998 -201.075 330.821 -201.888 332.651L-200.518 333.26C-201.328 335.084 -202.128 336.914 -202.916 338.75L-204.294 338.158C-205.083 339.995 -205.861 341.838 -206.628 343.687L-205.242 344.262C-206.005 346.102 -206.757 347.947 -207.498 349.799L-208.891 349.242C-209.634 351.099 -210.365 352.962 -211.086 354.83L-209.686 355.37C-210.404 357.232 -211.111 359.101 -211.807 360.974L-213.213 360.452C-213.909 362.326 -214.593 364.205 -215.265 366.09L-213.853 366.594C-214.522 368.47 -215.181 370.351 -215.827 372.237L-217.246 371.751C-217.895 373.643 -218.532 375.54 -219.158 377.443L-217.733 377.912C-218.357 379.808 -218.969 381.71 -219.57 383.617L-221.001 383.167C-221.601 385.072 -222.19 386.983 -222.767 388.898L-221.331 389.331C-221.905 391.238 -222.468 393.149 -223.019 395.065L-224.46 394.651C-225.013 396.573 -225.555 398.501 -226.084 400.433L-224.637 400.829C-225.165 402.755 -225.682 404.686 -226.186 406.622L-227.637 406.244C-228.141 408.176 -228.633 410.113 -229.113 412.055L-227.657 412.415C-228.134 414.347 -228.6 416.284 -229.055 418.226L-230.515 417.884C-230.971 419.832 -231.415 421.784 -231.847 423.741L-230.382 424.064C-230.812 426.015 -231.231 427.97 -231.638 429.929L-233.107 429.625C-233.512 431.579 -233.906 433.538 -234.288 435.5L-232.816 435.787C-233.196 437.74 -233.564 439.698 -233.921 441.66L-235.396 441.392C-235.754 443.36 -236.099 445.332 -236.433 447.308L-234.954 447.558C-235.286 449.528 -235.607 451.502 -235.915 453.48L-237.397 453.249C-237.704 455.221 -238 457.197 -238.283 459.176L-236.798 459.389C-237.08 461.358 -237.35 463.331 -237.608 465.308L-239.095 465.114C-239.354 467.097 -239.6 469.084 -239.835 471.075L-238.345 471.25C-238.579 473.235 -238.8 475.223 -239.01 477.215L-240.502 477.058C-240.71 479.042 -240.907 481.03 -241.091 483.022L-239.598 483.16C-239.781 485.14 -239.953 487.124 -240.112 489.111L-241.607 488.991C-241.767 490.984 -241.915 492.98 -242.05 494.98L-240.553 495.081C-240.688 497.075 -240.811 499.072 -240.922 501.072L-242.42 500.989C-242.53 502.983 -242.628 504.979 -242.714 506.978L-241.215 507.043C-241.301 509.028 -241.374 511.017 -241.435 513.008L-242.934 512.962C-242.995 514.96 -243.045 516.961 -243.081 518.964L-241.582 518.992C-241.618 520.989 -241.643 522.99 -241.655 524.994L-243.155 524.984C-243.161 525.989 -243.164 526.994 -243.164 528C-243.164 529.006 -243.161 530.012 -243.155 531.017L-241.655 531.007C-241.643 533.011 -241.618 535.011 -241.582 537.009L-243.081 537.037C-243.044 539.04 -242.995 541.041 -242.934 543.039L-241.435 542.993C-241.374 544.984 -241.3 546.973 -241.215 548.958L-242.714 549.023C-242.628 551.022 -242.53 553.018 -242.419 555.011L-240.922 554.929C-240.811 556.929 -240.688 558.926 -240.553 560.919L-242.05 561.021C-241.914 563.021 -241.767 565.017 -241.607 567.01L-240.112 566.89C-239.952 568.877 -239.781 570.86 -239.597 572.84L-241.091 572.979C-240.907 574.97 -240.71 576.958 -240.501 578.943L-239.009 578.786C-238.8 580.778 -238.578 582.766 -238.345 584.75L-239.834 584.926C-239.6 586.916 -239.353 588.903 -239.095 590.886L-237.607 590.692C-237.349 592.669 -237.079 594.643 -236.797 596.612L-238.282 596.824C-237.999 598.804 -237.704 600.779 -237.396 602.751L-235.914 602.52C-235.606 604.498 -235.285 606.472 -234.953 608.443L-236.432 608.692C-236.099 610.668 -235.753 612.641 -235.396 614.609L-233.92 614.34C-233.563 616.302 -233.195 618.26 -232.815 620.213L-234.287 620.5C-233.906 622.463 -233.512 624.422 -233.106 626.376L-231.637 626.071C-231.23 628.03 -230.812 629.985 -230.381 631.936L-231.846 632.259C-231.414 634.216 -230.97 636.168 -230.514 638.116L-229.054 637.774C-228.599 639.716 -228.133 641.653 -227.656 643.586L-229.112 643.946C-228.632 645.887 -228.14 647.824 -227.636 649.757L-226.185 649.378C-225.681 651.314 -225.164 653.245 -224.637 655.171L-226.083 655.568C-225.554 657.5 -225.012 659.427 -224.459 661.35L-223.018 660.935C-222.467 662.851 -221.904 664.763 -221.33 666.669L-222.766 667.102C-222.189 669.017 -221.6 670.928 -221 672.833L-219.569 672.383C-218.968 674.29 -218.356 676.192 -217.732 678.089L-219.157 678.557C-218.531 680.46 -217.894 682.357 -217.245 684.25L-215.826 683.763C-215.179 685.649 -214.521 687.53 -213.852 689.406L-215.264 689.91C-214.592 691.795 -213.907 693.674 -213.212 695.548L-211.806 695.026C-211.11 696.9 -210.403 698.768 -209.685 700.63L-211.084 701.17C-210.364 703.038 -209.632 704.901 -208.889 706.758L-207.497 706.201C-206.756 708.053 -206.004 709.898 -205.241 711.738L-206.627 712.313C-205.86 714.162 -205.082 716.005 -204.293 717.842L-202.915 717.25C-202.126 719.086 -201.327 720.916 -200.516 722.74L-201.887 723.349C-201.074 725.179 -200.25 727.002 -199.415 728.82L-198.052 728.193C-197.219 730.005 -196.375 731.811 -195.521 733.611L-196.876 734.254C-196.018 736.062 -195.148 737.865 -194.267 739.661L-192.921 739.001C-192.041 740.794 -191.152 742.581 -190.251 744.362L-191.589 745.039C-190.686 746.825 -189.771 748.605 -188.846 750.379L-187.516 749.685C-186.594 751.453 -185.661 753.214 -184.718 754.969L-186.039 755.679C-185.091 757.443 -184.132 759.2 -183.163 760.95L-181.85 760.224C-180.883 761.97 -179.905 763.71 -178.917 765.443L-180.22 766.187C-179.228 767.925 -178.226 769.657 -177.213 771.382L-175.92 770.623C-174.91 772.342 -173.891 774.055 -172.861 775.761L-174.145 776.536C-173.11 778.251 -172.064 779.958 -171.008 781.658L-169.734 780.867C-168.681 782.563 -167.618 784.251 -166.544 785.933L-167.808 786.74C-166.732 788.427 -165.644 790.107 -164.547 791.779L-163.293 790.956C-162.199 792.624 -161.095 794.284 -159.981 795.936L-161.225 796.775C-160.106 798.435 -158.977 800.089 -157.837 801.734L-156.604 800.881C-155.468 802.521 -154.322 804.155 -153.166 805.781L-154.389 806.65C-153.23 808.281 -152.06 809.905 -150.881 811.521L-149.67 810.636C-148.494 812.247 -147.309 813.851 -146.114 815.446L-147.314 816.346C-146.114 817.948 -144.904 819.543 -143.685 821.13L-142.495 820.216C-141.279 821.799 -140.054 823.373 -138.819 824.939L-139.997 825.868C-138.758 827.44 -137.509 829.003 -136.251 830.558L-135.085 829.615C-133.831 831.166 -132.567 832.709 -131.294 834.244L-132.448 835.202C-131.171 836.742 -129.883 838.275 -128.586 839.799L-127.444 838.828C-126.151 840.347 -124.849 841.859 -123.538 843.362L-124.668 844.348C-123.353 845.856 -122.029 847.356 -120.695 848.847L-119.577 847.847C-118.247 849.334 -116.908 850.813 -115.56 852.283L-116.666 853.297C-115.313 854.772 -113.952 856.239 -112.581 857.697L-111.488 856.67C-110.122 858.123 -108.747 859.569 -107.363 861.005L-108.443 862.046C-107.054 863.487 -105.657 864.919 -104.251 866.343L-103.184 865.289C-101.782 866.708 -100.371 868.119 -98.9522 869.52L-100.006 870.588C-98.5826 871.994 -97.1503 873.391 -95.7093 874.779L-94.6685 873.699C-93.2319 875.083 -91.7868 876.459 -90.3331 877.825L-91.3604 878.918C-89.9022 880.288 -88.4355 881.65 -86.9603 883.003L-85.9466 881.897C-84.4764 883.245 -82.9978 884.584 -81.5108 885.913L-82.5107 887.031C-81.0193 888.365 -79.5196 889.69 -78.0116 891.005L-77.0256 889.875C-75.5223 891.186 -74.0107 892.488 -72.491 893.78L-73.4628 894.923C-71.9384 896.22 -70.4057 897.507 -68.865 898.785L-67.9074 897.63C-66.3725 898.904 -64.8295 900.167 -63.2786 901.422L-64.2218 902.588C-62.6663 903.846 -61.1028 905.094 -59.5314 906.333L-58.6027 905.155C-57.0362 906.39 -55.4618 907.616 -53.8796 908.832L-54.7936 910.021C-53.2065 911.241 -51.6115 912.451 -50.0088 913.651L-49.1097 912.45C-47.514 913.645 -45.9106 914.831 -44.2996 916.006L-45.1837 917.218C-43.5678 918.397 -41.9443 919.566 -40.3133 920.725L-39.4442 919.503C-37.8182 920.659 -36.1847 921.805 -34.5438 922.94L-35.3975 924.174C-33.7518 925.313 -32.0985 926.442 -30.4379 927.562L-29.5996 926.318C-27.9469 927.432 -26.2869 928.536 -24.6196 929.629L-25.4424 930.884C-23.77 931.981 -22.0902 933.068 -20.4034 934.145L-19.5962 932.88C-17.9146 933.954 -16.2259 935.017 -14.5301 936.07L-15.3214 937.345C-13.6212 938.4 -11.9139 939.446 -10.1996 940.481L-9.4243 939.197C-7.71844 940.227 -6.00564 941.247 -4.286 942.256L-5.04528 943.55C-3.32027 944.562 -1.58841 945.564 0.150237 946.556L0.893305 945.253C2.62654 946.241 4.36653 947.219 6.11319 948.187L5.38645 949.499C7.13684 950.468 8.89389 951.427 10.6575 952.375L11.3678 951.054C13.1227 951.998 14.8841 952.93 16.652 953.853L15.9583 955.183C17.7317 956.108 19.5116 957.022 21.2979 957.926L21.9749 956.587C23.7557 957.488 25.5428 958.378 27.3361 959.257L26.6759 960.604C28.4721 961.484 30.2745 962.354 32.0831 963.212L32.7264 961.857C34.526 962.712 36.3318 963.555 38.1436 964.388L37.5173 965.751C39.3348 966.586 41.1584 967.41 42.9881 968.223L43.5972 966.852C45.4211 967.663 47.2511 968.463 49.0868 969.251L48.4949 970.629C50.3322 971.418 52.1754 972.196 54.0244 972.963L54.599 971.577C56.4389 972.34 58.2845 973.092 60.1358 973.833L59.5787 975.226C61.4359 975.969 63.2987 976.7 65.1672 977.421L65.7068 976.021C67.5695 976.739 69.4377 977.446 71.3115 978.142L70.7895 979.548C72.6633 980.243 74.5425 980.928 76.4272 981.6L76.9315 980.188C78.8071 980.857 80.688 981.516 82.5742 982.162L82.0877 983.581C83.9799 984.23 85.8774 984.867 87.7801 985.493L88.2488 984.068C90.1455 984.692 92.0475 985.304 93.9546 985.905L93.504 987.336C95.4094 987.936 97.32 988.525 99.2356 989.102L99.6682 987.666C101.575 988.24 103.486 988.803 105.403 989.354L104.988 990.796C106.91 991.348 108.838 991.89 110.77 992.419L111.166 990.973C113.093 991.5 115.023 992.017 116.959 992.521L116.581 993.973C118.513 994.476 120.45 994.968 122.392 995.448L122.752 993.992C124.684 994.469 126.622 994.936 128.563 995.39L128.221 996.85C130.169 997.306 132.121 997.75 134.078 998.182L134.402 996.717C136.352 997.148 138.307 997.566 140.267 997.973L139.962 999.442C141.916 999.848 143.875 1000.24 145.838 1000.62L146.124 999.151C148.078 999.531 150.035 999.899 151.997 1000.26L151.729 1001.73C153.697 1002.09 155.669 1002.43 157.646 1002.77L157.895 1001.29C159.865 1001.62 161.839 1001.94 163.818 1002.25L163.587 1003.73C165.558 1004.04 167.534 1004.33 169.513 1004.62L169.726 1003.13C171.695 1003.42 173.668 1003.69 175.645 1003.94L175.451 1005.43C177.435 1005.69 179.421 1005.94 181.412 1006.17L181.588 1004.68C183.572 1004.91 185.56 1005.14 187.552 1005.35L187.395 1006.84C189.38 1007.05 191.368 1007.24 193.359 1007.43L193.498 1005.93C195.478 1006.12 197.461 1006.29 199.448 1006.45L199.328 1007.94C201.321 1008.1 203.318 1008.25 205.317 1008.39L205.419 1006.89C207.412 1007.02 209.409 1007.15 211.41 1007.26L211.327 1008.76C213.32 1008.87 215.316 1008.96 217.315 1009.05L217.38 1007.55C219.365 1007.64 221.354 1007.71 223.345 1007.77L223.299 1009.27C225.297 1009.33 227.298 1009.38 229.301 1009.42L229.329 1007.92C231.327 1007.95 233.327 1007.98 235.331 1007.99L235.322 1009.49C236.326 1009.5 237.331 1009.5 238.337 1009.5C239.344 1009.5 240.349 1009.5 241.354 1009.49L241.345 1007.99C243.348 1007.98 245.349 1007.95 247.346 1007.92L247.374 1009.42C249.378 1009.38 251.378 1009.33 253.376 1009.27L253.33 1007.77C255.322 1007.71 257.31 1007.64 259.296 1007.55L259.36 1009.05C261.359 1008.96 263.356 1008.87 265.349 1008.76L265.266 1007.26C267.266 1007.15 269.263 1007.02 271.257 1006.89L271.358 1008.39C273.358 1008.25 275.354 1008.1 277.347 1007.94L277.227 1006.45C279.214 1006.29 281.198 1006.12 283.178 1005.93L283.316 1007.43C285.308 1007.24 287.296 1007.05 289.28 1006.84L289.123 1005.35C291.115 1005.14 293.103 1004.91 295.088 1004.68L295.263 1006.17C297.254 1005.94 299.241 1005.69 301.224 1005.43L301.03 1003.94C303.007 1003.69 304.98 1003.42 306.949 1003.13L307.162 1004.62C309.141 1004.33 311.117 1004.04 313.088 1003.73L312.857 1002.25C314.836 1001.94 316.81 1001.62 318.78 1001.29L319.029 1002.77C321.006 1002.43 322.978 1002.09 324.946 1001.73L324.678 1000.26C326.64 999.899 328.597 999.531 330.551 999.151L330.837 1000.62C332.8 1000.24 334.759 999.848 336.713 999.442L336.408 997.973C338.368 997.566 340.323 997.148 342.273 996.717L342.597 998.182C344.553 997.75 346.506 997.306 348.453 996.85L348.112 995.39C350.053 994.935 351.99 994.469 353.923 993.992L354.283 995.448C356.224 994.968 358.161 994.476 360.094 993.972L359.715 992.521C361.651 992.017 363.582 991.5 365.508 990.973L365.905 992.419C367.837 991.89 369.764 991.348 371.687 990.795L371.272 989.354C373.188 988.803 375.1 988.24 377.006 987.666L377.439 989.102C379.355 988.525 381.265 987.936 383.171 987.336L382.72 985.905C384.627 985.304 386.529 984.692 388.426 984.068L388.894 985.493C390.797 984.867 392.695 984.23 394.587 983.581L394.1 982.162C395.986 981.515 397.867 980.857 399.743 980.188L400.247 981.6C402.132 980.928 404.011 980.243 405.885 979.548L405.363 978.142C407.237 977.446 409.105 976.739 410.968 976.021L411.507 977.421C413.376 976.7 415.238 975.968 417.096 975.225L416.538 973.833C418.39 973.092 420.235 972.34 422.075 971.577L422.65 972.963C424.499 972.196 426.342 971.418 428.179 970.629L427.587 969.251C429.423 968.463 431.253 967.663 433.077 966.852L433.686 968.223C435.516 967.41 437.339 966.586 439.157 965.751L438.531 964.388C440.342 963.555 442.148 962.712 443.948 961.857L444.591 963.212C446.4 962.354 448.202 961.484 449.998 960.604L449.338 959.257C451.131 958.378 452.918 957.488 454.699 956.587L455.376 957.926C457.162 957.022 458.942 956.108 460.716 955.183L460.022 953.853C461.79 952.931 463.551 951.998 465.306 951.054L466.016 952.375C467.78 951.427 469.537 950.468 471.287 949.499L470.561 948.187C472.307 947.219 474.047 946.241 475.781 945.253L476.524 946.556C478.262 945.564 479.994 944.562 481.719 943.55L480.96 942.256C482.679 941.247 484.392 940.227 486.098 939.197L486.873 940.481C488.588 939.446 490.295 938.401 491.995 937.345L491.204 936.07C492.9 935.017 494.588 933.954 496.27 932.881L497.077 934.145C498.764 933.068 500.444 931.981 502.116 930.884L501.293 929.63C502.961 928.536 504.621 927.432 506.273 926.318L507.112 927.562C508.772 926.443 510.425 925.313 512.071 924.174L511.218 922.941C512.858 921.805 514.492 920.659 516.118 919.503L516.987 920.726C518.618 919.566 520.242 918.397 521.857 917.218L520.973 916.006C522.584 914.831 524.188 913.645 525.783 912.45L526.682 913.651C528.285 912.451 529.88 911.241 531.467 910.021L530.553 908.832C532.135 907.616 533.71 906.39 535.276 905.155L536.205 906.333C537.776 905.094 539.34 903.846 540.895 902.588L539.952 901.422C541.503 900.167 543.046 898.904 544.581 897.631L545.539 898.785C547.079 897.507 548.612 896.22 550.136 894.923L549.164 893.781C550.684 892.488 552.196 891.186 553.699 889.875L554.685 891.005C556.193 889.69 557.693 888.365 559.184 887.032L558.184 885.914C559.671 884.584 561.15 883.245 562.62 881.897L563.634 883.003C565.109 881.65 566.576 880.289 568.034 878.918L567.007 877.825C568.46 876.459 569.905 875.084 571.342 873.699L572.383 874.78C573.824 873.391 575.256 871.994 576.68 870.588L575.626 869.521C577.045 868.119 578.455 866.708 579.857 865.289L580.924 866.343C582.33 864.919 583.728 863.487 585.116 862.046L584.036 861.005C585.42 859.569 586.795 858.124 588.162 856.67L589.255 857.697C590.625 856.239 591.987 854.772 593.339 853.297L592.234 852.283C593.581 850.813 594.92 849.335 596.25 847.848L597.368 848.848C598.702 847.356 600.026 845.856 601.342 844.348L600.211 843.362C601.522 841.859 602.824 840.348 604.117 838.828L605.26 839.8C606.556 838.275 607.844 836.743 609.122 835.202L607.967 834.244C609.24 832.709 610.504 831.166 611.758 829.615L612.925 830.559C614.182 829.003 615.431 827.44 616.67 825.868L615.492 824.94C616.727 823.373 617.952 821.799 619.168 820.216L620.358 821.13C621.577 819.543 622.787 817.948 623.987 816.346L622.787 815.447C623.982 813.851 625.167 812.248 626.343 810.637L627.554 811.521C628.733 809.905 629.903 808.281 631.062 806.65L629.839 805.781C630.995 804.155 632.141 802.522 633.277 800.881L634.51 801.734C635.65 800.089 636.779 798.435 637.898 796.775L636.654 795.937C637.768 794.284 638.872 792.624 639.966 790.957L641.22 791.779C642.317 790.107 643.404 788.427 644.481 786.74L643.217 785.933C644.29 784.252 645.354 782.563 646.407 780.867L647.681 781.658C648.737 779.958 649.782 778.251 650.817 776.537L649.533 775.761C650.563 774.055 651.583 772.343 652.593 770.623L653.886 771.382C654.899 769.657 655.901 767.925 656.892 766.187L655.589 765.444C656.578 763.711 657.556 761.97 658.523 760.224L659.835 760.951C660.805 759.2 661.763 757.443 662.712 755.68L661.39 754.969C662.334 753.214 663.267 751.453 664.189 749.685L665.519 750.379C666.444 748.605 667.358 746.825 668.262 745.039L666.923 744.362C667.824 742.581 668.714 740.794 669.593 739.001L670.94 739.661C671.82 737.865 672.69 736.063 673.549 734.254L672.194 733.611C673.048 731.811 673.892 730.005 674.724 728.193L676.087 728.82C676.922 727.002 677.746 725.179 678.559 723.349L677.189 722.74C677.999 720.916 678.799 719.086 679.587 717.25L680.965 717.842C681.754 716.005 682.532 714.162 683.299 712.313L681.914 711.738C682.677 709.898 683.428 708.053 684.169 706.201L685.562 706.758C686.305 704.901 687.036 703.038 687.757 701.17L686.357 700.63C687.075 698.768 687.782 696.899 688.478 695.026L689.884 695.548C690.58 693.674 691.264 691.795 691.937 689.91L690.524 689.406C691.193 687.53 691.852 685.649 692.498 683.763L693.917 684.249C694.566 682.357 695.203 680.46 695.829 678.557L694.404 678.088C695.028 676.192 695.64 674.29 696.241 672.383L697.672 672.833C698.272 670.928 698.861 669.017 699.438 667.102L698.002 666.669C698.576 664.762 699.139 662.851 699.69 660.935L701.132 661.349C701.684 659.427 702.226 657.499 702.755 655.567L701.309 655.171C701.836 653.245 702.353 651.314 702.857 649.378L704.309 649.756C704.812 647.824 705.304 645.887 705.784 643.945L704.328 643.585C704.805 641.653 705.271 639.716 705.726 637.774L707.186 638.116C707.642 636.168 708.086 634.216 708.518 632.259L707.053 631.936C707.484 629.985 707.902 628.03 708.309 626.071L709.778 626.375C710.183 624.421 710.577 622.462 710.959 620.5L709.487 620.213C709.867 618.26 710.235 616.302 710.592 614.34L712.067 614.608C712.425 612.64 712.77 610.668 713.104 608.692L711.625 608.442C711.957 606.472 712.278 604.498 712.586 602.52L714.068 602.751C714.375 600.779 714.671 598.803 714.954 596.824L713.469 596.611C713.751 594.642 714.021 592.669 714.279 590.692L715.766 590.886C716.025 588.903 716.271 586.916 716.506 584.925L715.016 584.75C715.25 582.765 715.472 580.777 715.681 578.785L717.173 578.942C717.381 576.958 717.578 574.97 717.763 572.978L716.269 572.84C716.452 570.86 716.624 568.876 716.783 566.889L718.278 567.009C718.438 565.016 718.586 563.02 718.721 561.02L717.225 560.919C717.36 558.925 717.482 556.928 717.593 554.928L719.091 555.011C719.201 553.017 719.299 551.021 719.385 549.022L717.886 548.957C717.972 546.972 718.045 544.983 718.106 542.992L719.605 543.038C719.666 541.04 719.716 539.039 719.752 537.036L718.253 537.008C718.29 535.011 718.314 533.01 718.326 531.006L719.826 531.016C719.832 530.011 719.836 529.006 719.836 528Z" stroke="#272727" stroke-width="3" stroke-dasharray="6 6"/>
<path d="M603.501 528C603.501 526.999 603.497 525.998 603.489 524.998L601.989 525.01C601.973 523.019 601.941 521.031 601.893 519.048L603.393 519.012C603.345 517.02 603.281 515.032 603.201 513.048L601.702 513.109C601.622 511.126 601.526 509.147 601.415 507.172L602.912 507.087C602.8 505.091 602.671 503.099 602.526 501.111L601.03 501.22C600.886 499.24 600.726 497.265 600.55 495.294L602.044 495.161C601.868 493.177 601.675 491.198 601.467 489.224L599.975 489.381C599.766 487.401 599.541 485.425 599.3 483.455L600.789 483.273C600.547 481.294 600.29 479.32 600.017 477.351L598.531 477.557C598.258 475.593 597.97 473.635 597.667 471.681L599.149 471.451C598.842 469.476 598.519 467.505 598.18 465.54L596.702 465.795C596.365 463.839 596.012 461.887 595.643 459.941L597.117 459.662C596.747 457.707 596.361 455.757 595.96 453.812L594.491 454.116C594.088 452.166 593.671 450.223 593.237 448.285L594.701 447.958C594.266 446.012 593.815 444.072 593.349 442.138L591.891 442.489C591.427 440.563 590.947 438.642 590.452 436.727L591.904 436.352C591.404 434.417 590.889 432.489 590.358 430.568L588.912 430.967C588.384 429.053 587.84 427.146 587.281 425.244L588.72 424.821C588.159 422.912 587.582 421.009 586.99 419.113L585.558 419.559C584.966 417.661 584.359 415.769 583.736 413.883L585.16 413.413C584.535 411.52 583.895 409.634 583.24 407.755L581.824 408.249C581.171 406.377 580.504 404.512 579.822 402.654L581.23 402.137C580.542 400.263 579.839 398.396 579.121 396.537L577.721 397.077C577.007 395.225 576.277 393.38 575.533 391.543L576.923 390.98C576.176 389.135 575.414 387.297 574.637 385.467L573.256 386.053C572.48 384.224 571.689 382.402 570.883 380.588L572.254 379.979C571.446 378.157 570.623 376.344 569.785 374.538L568.424 375.169C567.59 373.37 566.741 371.579 565.879 369.796L567.229 369.143C566.36 367.347 565.477 365.56 564.579 363.78L563.24 364.456C562.346 362.684 561.439 360.92 560.517 359.165L561.845 358.468C560.919 356.705 559.979 354.95 559.026 353.204L557.709 353.923C556.757 352.18 555.791 350.446 554.812 348.72L556.116 347.98C555.132 346.247 554.135 344.523 553.124 342.808L551.832 343.57C550.824 341.861 549.803 340.162 548.769 338.471L550.049 337.688C549.008 335.987 547.954 334.296 546.887 332.614L545.62 333.417C544.557 331.742 543.481 330.076 542.391 328.42L543.644 327.595C542.55 325.931 541.442 324.277 540.321 322.632L539.081 323.476C537.964 321.836 536.833 320.205 535.689 318.584L536.915 317.719C535.766 316.091 534.605 314.473 533.431 312.865L532.219 313.75C531.049 312.148 529.866 310.556 528.671 308.974L529.868 308.07C528.667 306.48 527.453 304.9 526.226 303.33L525.044 304.254C523.822 302.691 522.588 301.138 521.342 299.595L522.509 298.653C521.257 297.103 519.992 295.565 518.716 294.036L517.564 294.998C516.292 293.475 515.008 291.963 513.712 290.461L514.847 289.481C513.545 287.973 512.231 286.476 510.906 284.99L509.786 285.989C508.466 284.509 507.133 283.039 505.789 281.581L506.892 280.564C505.541 279.1 504.179 277.646 502.806 276.204L501.72 277.238C500.352 275.801 498.972 274.376 497.581 272.962L498.65 271.91C497.253 270.49 495.844 269.082 494.425 267.685L493.373 268.754C491.959 267.363 490.533 265.983 489.097 264.615L490.131 263.529C488.689 262.155 487.235 260.793 485.771 259.443L484.754 260.546C483.296 259.202 481.826 257.869 480.346 256.549L481.345 255.429C479.858 254.104 478.362 252.79 476.854 251.488L475.874 252.623C474.372 251.327 472.86 250.043 471.337 248.771L472.299 247.619C470.77 246.343 469.231 245.078 467.682 243.826L466.739 244.993C465.197 243.747 463.644 242.513 462.081 241.291L463.004 240.109C461.435 238.882 459.855 237.668 458.265 236.467L457.361 237.664C455.779 236.469 454.187 235.286 452.585 234.116L453.469 232.905C451.861 231.73 450.243 230.569 448.616 229.42L447.751 230.646C446.13 229.502 444.499 228.371 442.858 227.254L443.703 226.014C442.058 224.893 440.403 223.785 438.739 222.691L437.915 223.944C436.259 222.855 434.592 221.778 432.917 220.715L433.721 219.449C432.039 218.381 430.347 217.327 428.646 216.286L427.864 217.566C426.173 216.532 424.473 215.511 422.765 214.503L423.527 213.211C421.812 212.2 420.088 211.203 418.355 210.219L417.614 211.523C415.889 210.544 414.154 209.578 412.411 208.626L413.13 207.309C411.384 206.356 409.63 205.416 407.867 204.49L407.169 205.818C405.414 204.896 403.65 203.989 401.879 203.095L402.554 201.756C400.775 200.858 398.987 199.975 397.191 199.106L396.538 200.456C394.755 199.594 392.964 198.745 391.165 197.911L391.796 196.55C389.991 195.713 388.177 194.889 386.355 194.081L385.747 195.452C383.933 194.646 382.111 193.855 380.281 193.079L380.867 191.698C379.037 190.922 377.199 190.16 375.354 189.412L374.791 190.802C372.954 190.058 371.109 189.329 369.258 188.614L369.798 187.214C367.938 186.497 366.071 185.794 364.197 185.105L363.68 186.514C361.822 185.831 359.958 185.164 358.086 184.512L358.579 183.095C356.7 182.44 354.814 181.8 352.921 181.175L352.451 182.599C350.566 181.977 348.674 181.369 346.775 180.777L347.222 179.345C345.325 178.753 343.422 178.177 341.513 177.615L341.09 179.054C339.189 178.495 337.281 177.952 335.367 177.423L335.767 175.977C333.845 175.447 331.917 174.931 329.982 174.431L329.607 175.883C327.692 175.389 325.772 174.909 323.845 174.444L324.196 172.986C322.262 172.52 320.322 172.07 318.376 171.634L318.049 173.098C316.111 172.665 314.168 172.247 312.219 171.845L312.522 170.376C310.577 169.974 308.627 169.589 306.672 169.218L306.393 170.692C304.447 170.324 302.496 169.971 300.539 169.634L300.794 168.155C298.829 167.817 296.859 167.494 294.883 167.187L294.653 168.669C292.699 168.365 290.741 168.077 288.777 167.805L288.983 166.319C287.014 166.046 285.04 165.788 283.061 165.546L282.88 167.035C280.909 166.795 278.933 166.57 276.953 166.361L277.11 164.869C275.136 164.661 273.157 164.468 271.174 164.291L271.04 165.785C269.07 165.61 267.094 165.45 265.115 165.306L265.223 163.809C263.236 163.665 261.243 163.536 259.247 163.423L259.162 164.921C257.187 164.809 255.208 164.714 253.225 164.634L253.286 163.135C251.302 163.055 249.314 162.991 247.323 162.943L247.286 164.443C245.303 164.395 243.315 164.363 241.324 164.347L241.336 162.847C240.336 162.839 239.336 162.834 238.334 162.834C237.333 162.834 236.332 162.839 235.332 162.847L235.344 164.347C233.353 164.363 231.366 164.395 229.382 164.443L229.346 162.943C227.354 162.991 225.366 163.055 223.383 163.135L223.443 164.634C221.46 164.714 219.481 164.809 217.506 164.921L217.422 163.423C215.425 163.536 213.433 163.665 211.445 163.81L211.554 165.306C209.574 165.45 207.599 165.61 205.628 165.785L205.495 164.291C203.511 164.468 201.532 164.661 199.558 164.869L199.716 166.361C197.735 166.57 195.76 166.795 193.789 167.035L193.607 165.546C191.628 165.788 189.654 166.046 187.685 166.319L187.891 167.805C185.928 168.077 183.969 168.365 182.016 168.669L181.785 167.187C179.81 167.494 177.84 167.817 175.875 168.156L176.13 169.634C174.173 169.971 172.221 170.324 170.275 170.692L169.996 169.218C168.041 169.589 166.091 169.974 164.147 170.376L164.45 171.845C162.501 172.247 160.557 172.665 158.619 173.098L158.292 171.634C156.346 172.07 154.406 172.52 152.472 172.986L152.824 174.445C150.897 174.909 148.976 175.389 147.061 175.883L146.686 174.431C144.752 174.931 142.824 175.447 140.902 175.977L141.301 177.423C139.387 177.952 137.48 178.496 135.579 179.054L135.156 177.615C133.246 178.177 131.343 178.753 129.447 179.345L129.894 180.777C127.995 181.369 126.103 181.977 124.218 182.599L123.747 181.175C121.854 181.8 119.968 182.44 118.089 183.095L118.583 184.512C116.711 185.164 114.846 185.832 112.988 186.514L112.471 185.106C110.597 185.794 108.73 186.497 106.871 187.215L107.411 188.614C105.559 189.329 103.715 190.058 101.878 190.802L101.314 189.412C99.4693 190.16 97.6315 190.922 95.8015 191.698L96.3874 193.079C94.5579 193.856 92.736 194.646 90.922 195.452L90.3134 194.081C88.4918 194.889 86.6781 195.713 84.8724 196.55L85.5035 197.911C83.7046 198.745 81.9136 199.594 80.1308 200.456L79.4774 199.106C77.6817 199.975 75.8941 200.858 74.1148 201.756L74.7903 203.095C73.0184 203.989 71.2548 204.896 69.4996 205.818L68.8023 204.49C67.0391 205.416 65.2845 206.356 63.5386 207.309L64.2576 208.626C62.5145 209.578 60.7801 210.544 59.0545 211.524L58.314 210.219C56.5812 211.203 54.8573 212.2 53.1424 213.211L53.9042 214.503C52.1956 215.511 50.496 216.532 48.8054 217.566L48.0226 216.286C46.3219 217.327 44.6304 218.381 42.9482 219.449L43.7519 220.715C42.0766 221.778 40.4106 222.855 38.754 223.944L37.9298 222.691C36.2657 223.785 34.611 224.893 32.9661 226.014L33.8107 227.254C32.1702 228.371 30.5394 229.502 28.9183 230.646L28.0535 229.42C26.4258 230.569 24.8079 231.73 23.1999 232.905L24.0846 234.116C22.4825 235.286 20.8904 236.469 19.3084 237.664L18.4041 236.467C16.8142 237.668 15.2343 238.882 13.6648 240.109L14.5885 241.291C13.0253 242.513 11.4725 243.747 9.93 244.993L8.98722 243.826C7.43792 245.078 5.89908 246.343 4.37082 247.619L5.33247 248.77C3.80963 250.043 2.29737 251.327 0.795813 252.623L-0.184446 251.488C-1.69215 252.79 -3.18911 254.103 -4.67515 255.429L-3.67655 256.549C-5.1568 257.869 -6.62618 259.202 -8.08454 260.546L-9.10121 259.443C-10.5659 260.793 -12.0195 262.155 -13.4619 263.529L-12.4274 264.615C-13.8639 265.983 -15.2892 267.363 -16.7032 268.754L-17.7552 267.685C-19.175 269.082 -20.5834 270.49 -21.9803 271.91L-20.9111 272.962C-22.3022 274.376 -23.6819 275.801 -25.05 277.238L-26.1362 276.203C-27.5099 277.646 -28.8719 279.1 -30.2221 280.564L-29.1192 281.581C-30.4635 283.039 -31.7961 284.509 -33.1167 285.989L-34.236 284.99C-35.5618 286.476 -36.8757 287.973 -38.1774 289.481L-37.042 290.461C-38.3384 291.963 -39.6227 293.475 -40.8948 294.998L-42.046 294.036C-43.3226 295.565 -44.587 297.103 -45.8389 298.653L-44.6722 299.595C-45.9187 301.138 -47.1527 302.691 -48.3743 304.254L-49.5562 303.33C-50.7828 304.9 -51.9969 306.48 -53.1982 308.07L-52.0014 308.974C-53.1967 310.556 -54.3794 312.148 -55.5494 313.75L-56.7607 312.865C-57.935 314.473 -59.0964 316.091 -60.2449 317.719L-59.0192 318.584C-60.163 320.205 -61.2938 321.836 -62.4116 323.476L-63.6512 322.632C-64.7721 324.277 -65.8798 325.931 -66.9743 327.595L-65.7211 328.42C-66.8107 330.076 -67.8871 331.742 -68.9501 333.417L-70.2166 332.614C-71.2841 334.296 -72.3382 335.988 -73.3787 337.688L-72.0992 338.471C-73.1335 340.162 -74.1544 341.861 -75.1618 343.57L-76.4539 342.808C-77.465 344.523 -78.4624 346.247 -79.4461 347.98L-78.1417 348.72C-79.1213 350.446 -80.0873 352.18 -81.0393 353.923L-82.3558 353.204C-83.3094 354.95 -84.2493 356.705 -85.1751 358.468L-83.8471 359.165C-84.7687 360.921 -85.6764 362.684 -86.5701 364.456L-87.9094 363.781C-88.8068 365.56 -89.69 367.347 -90.559 369.143L-89.2087 369.797C-90.0714 371.579 -90.92 373.37 -91.7542 375.169L-93.115 374.538C-93.9525 376.344 -94.7756 378.158 -95.5843 379.979L-94.2133 380.588C-95.0186 382.402 -95.8095 384.224 -96.5859 386.053L-97.9667 385.467C-98.7433 387.297 -99.5054 389.135 -100.253 390.98L-98.8626 391.544C-99.6067 393.381 -100.336 395.225 -101.051 397.077L-102.45 396.537C-103.168 398.396 -103.871 400.263 -104.559 402.137L-103.151 402.654C-103.833 404.512 -104.501 406.377 -105.153 408.249L-106.57 407.755C-107.225 409.634 -107.865 411.52 -108.49 413.413L-107.066 413.884C-107.688 415.769 -108.296 417.661 -108.888 419.56L-110.32 419.113C-110.912 421.009 -111.488 422.912 -112.05 424.822L-110.61 425.245C-111.169 427.146 -111.713 429.053 -112.242 430.967L-113.688 430.568C-114.218 432.49 -114.734 434.418 -115.234 436.352L-113.781 436.728C-114.276 438.642 -114.756 440.563 -115.22 442.49L-116.679 442.138C-117.145 444.072 -117.595 446.012 -118.03 447.958L-116.567 448.285C-117 450.223 -117.418 452.167 -117.82 454.116L-119.289 453.813C-119.69 455.757 -120.076 457.707 -120.446 459.663L-118.973 459.942C-119.341 461.888 -119.694 463.839 -120.031 465.796L-121.509 465.541C-121.848 467.506 -122.171 469.476 -122.478 471.451L-120.996 471.682C-121.299 473.635 -121.588 475.594 -121.86 477.557L-123.346 477.351C-123.619 479.32 -123.877 481.294 -124.118 483.273L-122.629 483.455C-122.87 485.426 -123.095 487.401 -123.304 489.382L-124.796 489.224C-125.004 491.199 -125.197 493.177 -125.373 495.161L-123.879 495.294C-124.055 497.265 -124.215 499.24 -124.359 501.22L-125.855 501.111C-126 503.099 -126.129 505.091 -126.241 507.088L-124.744 507.172C-124.855 509.147 -124.951 511.126 -125.031 513.109L-126.53 513.049C-126.609 515.032 -126.673 517.02 -126.722 519.012L-125.222 519.048C-125.27 521.032 -125.302 523.019 -125.318 525.011L-126.818 524.998C-126.826 525.998 -126.83 526.999 -126.83 528C-126.83 529.002 -126.826 530.002 -126.818 531.002L-125.318 530.99C-125.302 532.981 -125.27 534.969 -125.222 536.953L-126.722 536.989C-126.673 538.98 -126.609 540.968 -126.529 542.952L-125.031 542.891C-124.951 544.875 -124.855 546.854 -124.743 548.828L-126.241 548.913C-126.128 550.909 -126 552.902 -125.855 554.89L-124.359 554.781C-124.215 556.76 -124.055 558.736 -123.879 560.707L-125.373 560.84C-125.196 562.823 -125.004 564.802 -124.795 566.776L-123.304 566.619C-123.095 568.599 -122.87 570.575 -122.629 572.546L-124.118 572.728C-123.876 574.706 -123.619 576.68 -123.345 578.65L-121.86 578.443C-121.587 580.407 -121.299 582.365 -120.995 584.319L-122.477 584.549C-122.17 586.525 -121.847 588.495 -121.509 590.46L-120.031 590.205C-119.693 592.162 -119.34 594.113 -118.972 596.059L-120.446 596.338C-120.076 598.294 -119.69 600.244 -119.288 602.188L-117.819 601.885C-117.417 603.834 -116.999 605.778 -116.566 607.715L-118.03 608.043C-117.595 609.988 -117.144 611.928 -116.678 613.862L-115.22 613.511C-114.755 615.438 -114.276 617.358 -113.781 619.273L-115.233 619.648C-114.733 621.583 -114.218 623.511 -113.687 625.433L-112.241 625.033C-111.712 626.947 -111.169 628.855 -110.61 630.756L-112.049 631.179C-111.487 633.088 -110.911 634.991 -110.319 636.888L-108.887 636.441C-108.295 638.34 -107.687 640.232 -107.065 642.117L-108.489 642.587C-107.864 644.48 -107.224 646.366 -106.569 648.245L-105.152 647.752C-104.5 649.623 -103.833 651.488 -103.15 653.346L-104.558 653.863C-103.87 655.737 -103.167 657.604 -102.449 659.464L-101.05 658.923C-100.335 660.775 -99.6057 662.62 -98.8615 664.457L-100.252 665.02C-99.5043 666.865 -98.7422 668.703 -97.9656 670.533L-96.5848 669.947C-95.8084 671.777 -95.0175 673.599 -94.2122 675.413L-95.5831 676.021C-94.7745 677.843 -93.9513 679.656 -93.1139 681.462L-91.7531 680.831C-90.9188 682.63 -90.0702 684.421 -89.2075 686.204L-90.5578 686.857C-89.6888 688.653 -88.8055 690.441 -87.9082 692.22L-86.5689 691.544C-85.6752 693.316 -84.7675 695.08 -83.8458 696.835L-85.1738 697.532C-84.248 699.295 -83.3081 701.05 -82.3545 702.796L-81.038 702.077C-80.0859 703.82 -79.12 705.555 -78.1404 707.28L-79.4448 708.021C-78.4611 709.753 -77.4636 711.477 -76.4526 713.192L-75.1604 712.43C-74.1531 714.139 -73.1322 715.839 -72.0978 717.529L-73.3773 718.312C-72.3368 720.013 -71.2827 721.704 -70.2152 723.386L-68.9487 722.583C-67.8856 724.258 -66.8093 725.924 -65.7197 727.581L-66.9729 728.405C-65.8784 730.069 -64.7706 731.724 -63.6497 733.369L-62.4101 732.524C-61.2924 734.164 -60.1615 735.795 -59.0178 737.416L-60.2434 738.281C-59.0949 739.909 -57.9335 741.527 -56.7592 743.135L-55.5478 742.25C-54.3779 743.852 -53.1952 745.444 -51.9999 747.026L-53.1966 747.931C-51.9953 749.521 -50.7812 751.1 -49.5546 752.67L-48.3728 751.746C-47.1512 753.309 -45.9171 754.862 -44.6706 756.405L-45.8373 757.348C-44.5854 758.897 -43.321 760.436 -42.0444 761.964L-40.8932 761.002C-39.6211 762.525 -38.3367 764.037 -37.0403 765.539L-38.1757 766.519C-36.874 768.027 -35.5602 769.524 -34.2343 771.01L-33.1151 770.011C-31.7944 771.492 -30.4618 772.961 -29.1175 774.419L-30.2204 775.436C-28.8702 776.901 -27.5082 778.354 -26.1345 779.797L-25.0483 778.762C-23.6802 780.199 -22.3005 781.624 -20.9093 783.038L-21.9785 784.09C-20.5816 785.51 -19.1732 786.918 -17.7534 788.315L-16.7014 787.246C-15.2874 788.637 -13.8621 790.017 -12.4256 791.385L-13.4601 792.471C-12.0177 793.845 -10.564 795.207 -9.09934 796.557L-8.08267 795.454C-6.62431 796.798 -5.15492 798.131 -3.67467 799.452L-4.67325 800.571C-3.1872 801.897 -1.69024 803.211 -0.182516 804.512L0.79772 803.377C2.29929 804.673 3.81158 805.958 5.33442 807.23L4.37279 808.381C5.90105 809.658 7.43991 810.922 8.9892 812.174L9.93196 811.007C11.4745 812.254 13.0273 813.488 14.5905 814.709L13.6668 815.891C15.2364 817.118 16.8162 818.332 18.4062 819.533L19.3105 818.336C20.8925 819.532 22.4846 820.714 24.0866 821.884L23.202 823.096C24.81 824.27 26.4279 825.431 28.0557 826.58L28.9204 825.354C30.5415 826.498 32.1723 827.629 33.8128 828.747L32.9682 829.986C34.6132 831.107 36.2678 832.215 37.932 833.309L38.7562 832.056C40.4128 833.146 42.0788 834.222 43.7541 835.285L42.9504 836.552C44.6326 837.619 46.3242 838.673 48.0249 839.714L48.8077 838.434C50.4983 839.469 52.1979 840.49 53.9066 841.497L53.1447 842.789C54.8597 843.8 56.5836 844.798 58.3163 845.781L59.0569 844.477C60.7825 845.456 62.5169 846.422 64.26 847.374L63.5409 848.691C65.2869 849.645 67.0416 850.584 68.8047 851.51L69.5021 850.182C71.2572 851.104 73.0208 852.012 74.7927 852.905L74.1173 854.245C75.8965 855.142 77.6841 856.025 79.4799 856.894L80.1333 855.544C81.9161 856.407 83.7071 857.255 85.506 858.089L84.8749 859.45C86.6806 860.288 88.4943 861.111 90.3159 861.919L90.9245 860.549C92.7386 861.354 94.5604 862.145 96.39 862.921L95.804 864.302C97.6341 865.079 99.4719 865.841 101.317 866.588L101.88 865.198C103.717 865.942 105.562 866.672 107.414 867.386L106.874 868.786C108.733 869.504 110.6 870.207 112.474 870.895L112.991 869.487C114.849 870.169 116.714 870.836 118.586 871.489L118.092 872.905C119.971 873.56 121.857 874.2 123.75 874.825L124.22 873.401C126.106 874.024 127.998 874.631 129.896 875.223L129.45 876.655C131.346 877.247 133.249 877.824 135.158 878.385L135.582 876.946C137.483 877.505 139.39 878.049 141.304 878.577L140.905 880.023C142.826 880.554 144.755 881.069 146.689 881.569L147.064 880.117C148.979 880.612 150.9 881.091 152.827 881.556L152.475 883.014C154.409 883.48 156.349 883.931 158.295 884.366L158.622 882.902C160.56 883.335 162.503 883.753 164.453 884.156L164.15 885.625C166.094 886.026 168.044 886.412 169.999 886.782L170.278 885.308C172.224 885.676 174.176 886.029 176.132 886.367L175.878 887.845C177.843 888.183 179.813 888.506 181.788 888.814L182.019 887.331C183.972 887.635 185.931 887.923 187.894 888.196L187.688 889.681C189.657 889.955 191.631 890.212 193.61 890.454L193.792 888.965C195.763 889.206 197.738 889.43 199.719 889.64L199.561 891.131C201.535 891.34 203.514 891.532 205.498 891.709L205.631 890.215C207.602 890.391 209.577 890.551 211.557 890.695L211.448 892.191C213.436 892.335 215.428 892.464 217.425 892.577L217.509 891.079C219.484 891.191 221.463 891.287 223.446 891.366L223.386 892.865C225.369 892.945 227.357 893.009 229.349 893.057L229.385 891.558C231.368 891.606 233.356 891.638 235.347 891.654L235.335 893.154C236.335 893.162 237.335 893.166 238.337 893.166C238.805 893.166 239.274 893.165 239.742 893.163C240.274 893.161 240.807 893.158 241.339 893.154L241.327 891.654C243.318 891.638 245.306 891.606 247.289 891.558L247.326 893.057C249.317 893.009 251.305 892.945 253.289 892.865L253.228 891.366C255.211 891.287 257.19 891.191 259.165 891.079L259.25 892.577C261.246 892.464 263.239 892.335 265.226 892.191L265.117 890.695C267.097 890.551 269.073 890.391 271.043 890.215L271.177 891.709C273.16 891.532 275.139 891.34 277.113 891.131L276.956 889.639C278.936 889.43 280.912 889.206 282.883 888.965L283.064 890.454C285.043 890.212 287.017 889.955 288.986 889.681L288.78 888.196C290.744 887.923 292.702 887.635 294.656 887.331L294.886 888.813C296.862 888.506 298.832 888.183 300.797 887.845L300.542 886.367C302.499 886.029 304.45 885.676 306.396 885.308L306.675 886.782C308.63 886.412 310.58 886.026 312.525 885.625L312.221 884.155C314.171 883.753 316.114 883.335 318.052 882.902L318.379 884.366C320.325 883.931 322.265 883.48 324.199 883.014L323.848 881.556C325.774 881.091 327.695 880.612 329.61 880.117L329.985 881.569C331.92 881.069 333.848 880.554 335.769 880.023L335.37 878.577C337.284 878.048 339.192 877.505 341.093 876.946L341.516 878.385C343.425 877.823 345.328 877.247 347.224 876.655L346.778 875.223C348.676 874.631 350.568 874.023 352.454 873.401L352.924 874.825C354.817 874.2 356.703 873.56 358.582 872.905L358.088 871.489C359.96 870.836 361.825 870.169 363.683 869.487L364.2 870.895C366.074 870.207 367.941 869.504 369.8 868.786L369.26 867.386C371.112 866.672 372.957 865.942 374.794 865.198L375.357 866.588C377.202 865.841 379.04 865.078 380.87 864.302L380.284 862.921C382.113 862.145 383.935 861.354 385.749 860.548L386.358 861.919C388.18 861.111 389.993 860.288 391.799 859.45L391.168 858.089C392.967 857.255 394.758 856.406 396.54 855.544L397.194 856.894C398.99 856.025 400.777 855.142 402.556 854.245L401.881 852.905C403.653 852.012 405.416 851.104 407.172 850.182L407.869 851.51C409.632 850.584 411.387 849.644 413.133 848.691L412.414 847.374C414.157 846.422 415.891 845.456 417.617 844.477L418.357 845.781C420.09 844.797 421.814 843.8 423.529 842.789L422.767 841.497C424.476 840.49 426.175 839.469 427.866 838.434L428.649 839.714C430.349 838.673 432.041 837.619 433.723 836.552L432.919 835.285C434.595 834.222 436.261 833.146 437.917 832.056L438.742 833.309C440.406 832.215 442.06 831.107 443.705 829.986L442.861 828.747C444.501 827.629 446.132 826.498 447.753 825.354L448.618 826.58C450.245 825.431 451.863 824.27 453.471 823.096L452.587 821.884C454.189 820.714 455.781 819.532 457.363 818.336L458.267 819.533C459.857 818.332 461.437 817.118 463.007 815.891L462.083 814.709C463.646 813.488 465.199 812.254 466.741 811.007L467.684 812.174C469.233 810.922 470.772 809.658 472.3 808.381L471.339 807.23C472.862 805.958 474.374 804.673 475.875 803.377L476.856 804.512C478.363 803.211 479.86 801.897 481.346 800.571L480.348 799.452C481.828 798.131 483.297 796.798 484.756 795.454L485.772 796.557C487.237 795.207 488.691 793.845 490.133 792.471L489.099 791.385C490.535 790.017 491.961 788.637 493.375 787.246L494.427 788.315C495.846 786.918 497.255 785.51 498.652 784.09L497.582 783.038C498.973 781.624 500.353 780.199 501.721 778.762L502.808 779.797C504.181 778.354 505.543 776.901 506.893 775.436L505.79 774.419C507.135 772.961 508.467 771.492 509.788 770.011L510.907 771.01C512.233 769.524 513.547 768.027 514.849 766.519L513.713 765.539C515.01 764.037 516.294 762.525 517.566 761.002L518.717 761.964C519.994 760.436 521.258 758.897 522.51 757.348L521.344 756.405C522.59 754.862 523.824 753.309 525.046 751.746L526.228 752.67C527.454 751.1 528.668 749.521 529.869 747.931L528.673 747.026C529.868 745.444 531.051 743.852 532.221 742.25L533.432 743.135C534.606 741.527 535.768 739.909 536.916 738.281L535.69 737.416C536.834 735.795 537.965 734.164 539.083 732.524L540.323 733.369C541.443 731.724 542.551 730.069 543.646 728.405L542.392 727.581C543.482 725.924 544.558 724.258 545.621 722.583L546.888 723.386C547.955 721.704 549.009 720.013 550.05 718.312L548.77 717.529C549.805 715.839 550.826 714.139 551.833 712.43L553.125 713.192C554.136 711.477 555.134 709.753 556.117 708.021L554.813 707.28C555.793 705.554 556.758 703.82 557.711 702.077L559.027 702.796C559.981 701.05 560.921 699.295 561.846 697.532L560.518 696.835C561.44 695.08 562.348 693.316 563.241 691.544L564.581 692.22C565.478 690.44 566.361 688.653 567.23 686.857L565.88 686.204C566.743 684.421 567.591 682.63 568.426 680.831L569.786 681.462C570.624 679.656 571.447 677.843 572.256 676.021L570.885 675.412C571.69 673.598 572.481 671.776 573.257 669.947L574.638 670.533C575.415 668.703 576.177 666.865 576.924 665.02L575.534 664.457C576.278 662.62 577.008 660.775 577.722 658.923L579.122 659.463C579.84 657.604 580.543 655.737 581.231 653.863L579.823 653.346C580.505 651.488 581.172 649.623 581.825 647.751L583.241 648.245C583.896 646.366 584.536 644.48 585.161 642.587L583.737 642.116C584.359 640.231 584.967 638.339 585.559 636.441L586.991 636.887C587.583 634.991 588.159 633.088 588.721 631.179L587.282 630.755C587.841 628.854 588.384 626.947 588.913 625.033L590.359 625.432C590.89 623.511 591.405 621.582 591.905 619.648L590.453 619.273C590.948 617.358 591.427 615.437 591.892 613.51L593.35 613.862C593.816 611.928 594.267 609.988 594.702 608.042L593.238 607.715C593.671 605.777 594.089 603.833 594.491 601.884L595.96 602.187C596.362 600.243 596.747 598.293 597.118 596.338L595.644 596.059C596.012 594.113 596.365 592.161 596.702 590.205L598.181 590.459C598.519 588.494 598.842 586.524 599.149 584.549L597.667 584.318C597.971 582.365 598.259 580.406 598.531 578.443L600.017 578.649C600.29 576.68 600.548 574.706 600.79 572.727L599.301 572.545C599.541 570.574 599.766 568.599 599.975 566.618L601.467 566.776C601.675 564.802 601.868 562.823 602.045 560.839L600.551 560.706C600.726 558.735 600.886 556.76 601.03 554.78L602.526 554.889C602.671 552.901 602.8 550.909 602.913 548.913L601.415 548.828C601.526 546.853 601.622 544.874 601.702 542.891L603.201 542.951C603.281 540.968 603.345 538.98 603.393 536.988L601.893 536.952C601.941 534.969 601.973 532.981 601.989 530.99L603.489 531.002C603.497 530.002 603.501 529.002 603.501 528Z" stroke="#272727" stroke-width="3" stroke-dasharray="6 6"/>
<circle cx="158" cy="52" r="17.5" fill="#DED3C2" stroke="#272727" stroke-width="3"/>
<circle cx="158" cy="52" r="8" fill="#272727"/>
<path d="M130.022 12.2H133.158C134.287 12.2 135.141 12.4613 135.72 12.984C136.308 13.4973 136.602 14.258 136.602 15.266C136.602 16.3393 136.299 17.156 135.692 17.716C135.095 18.2667 134.227 18.542 133.088 18.542H131.786V22H130.022V12.2ZM133.242 17.114C133.774 17.114 134.18 16.9647 134.46 16.666C134.74 16.358 134.88 15.9147 134.88 15.336C134.88 14.776 134.731 14.3513 134.432 14.062C134.143 13.7727 133.713 13.628 133.144 13.628H131.786V17.114H133.242ZM138.211 12.2H141.515C142.607 12.2 143.424 12.424 143.965 12.872C144.507 13.3107 144.777 13.9827 144.777 14.888C144.777 15.532 144.633 16.0827 144.343 16.54C144.054 16.9973 143.643 17.3193 143.111 17.506V17.534C143.289 17.6553 143.429 17.7813 143.531 17.912C143.643 18.0427 143.737 18.192 143.811 18.36L145.253 22H143.377L142.215 18.948C142.085 18.6213 141.921 18.402 141.725 18.29C141.529 18.1687 141.207 18.108 140.759 18.108H139.975V22H138.211V12.2ZM141.347 16.694C141.907 16.694 142.332 16.5587 142.621 16.288C142.92 16.0173 143.069 15.616 143.069 15.084C143.069 14.1133 142.486 13.628 141.319 13.628H139.975V16.694H141.347ZM150.235 22.14C149.348 22.14 148.578 21.9393 147.925 21.538C147.272 21.1273 146.772 20.544 146.427 19.788C146.082 19.032 145.909 18.136 145.909 17.1C145.909 16.064 146.082 15.168 146.427 14.412C146.772 13.656 147.272 13.0773 147.925 12.676C148.578 12.2653 149.348 12.06 150.235 12.06C151.122 12.06 151.887 12.2653 152.531 12.676C153.184 13.0773 153.684 13.656 154.029 14.412C154.374 15.168 154.547 16.064 154.547 17.1C154.547 18.136 154.374 19.032 154.029 19.788C153.684 20.544 153.184 21.1273 152.531 21.538C151.887 21.9393 151.122 22.14 150.235 22.14ZM150.235 20.726C151.019 20.726 151.635 20.404 152.083 19.76C152.54 19.116 152.769 18.2293 152.769 17.1C152.769 15.9707 152.54 15.084 152.083 14.44C151.635 13.7867 151.019 13.46 150.235 13.46C149.442 13.46 148.816 13.7867 148.359 14.44C147.911 15.084 147.687 15.9707 147.687 17.1C147.687 18.2293 147.911 19.116 148.359 19.76C148.816 20.404 149.442 20.726 150.235 20.726ZM157.58 22.14C157.095 22.14 156.628 22.0607 156.18 21.902C155.742 21.734 155.373 21.51 155.074 21.23L155.774 20.012C156.008 20.2267 156.274 20.3993 156.572 20.53C156.88 20.6513 157.188 20.712 157.496 20.712C157.982 20.712 158.332 20.5487 158.546 20.222C158.761 19.8953 158.868 19.3633 158.868 18.626V12.2H160.632V18.864C160.632 19.9747 160.385 20.8007 159.89 21.342C159.396 21.874 158.626 22.14 157.58 22.14ZM162.657 12.2H168.943V13.628H164.421V16.134H168.467V17.562H164.421V20.572H168.943V22H162.657V12.2ZM174.437 22.14C173.541 22.14 172.757 21.9347 172.085 21.524C171.422 21.1133 170.909 20.53 170.545 19.774C170.181 19.0087 169.999 18.1173 169.999 17.1C169.999 16.0733 170.181 15.182 170.545 14.426C170.909 13.67 171.427 13.0867 172.099 12.676C172.771 12.2653 173.559 12.06 174.465 12.06C175.221 12.06 175.883 12.2047 176.453 12.494C177.022 12.7833 177.442 13.1893 177.713 13.712L176.705 14.622C176.201 13.866 175.459 13.488 174.479 13.488C173.611 13.488 172.943 13.8007 172.477 14.426C172.01 15.042 171.777 15.9333 171.777 17.1C171.777 18.2573 172.005 19.1487 172.463 19.774C172.92 20.3993 173.573 20.712 174.423 20.712C175.459 20.712 176.219 20.3293 176.705 19.564L177.713 20.474C177.442 21.006 177.022 21.4167 176.453 21.706C175.883 21.9953 175.211 22.14 174.437 22.14ZM181.246 13.516H178.292V12.2H185.964V13.516H183.01V22H181.246V13.516Z" fill="#272727"/>
<circle cx="468" cy="953" r="17.5" fill="#DED3C2" stroke="#272727" stroke-width="3"/>
<circle cx="468" cy="953" r="8" fill="#272727"/>
<path d="M443.876 914.6H446.564C447.532 914.6 448.264 914.824 448.76 915.272C449.264 915.712 449.516 916.364 449.516 917.228C449.516 918.148 449.256 918.848 448.736 919.328C448.224 919.8 447.48 920.036 446.504 920.036H445.388V923H443.876V914.6ZM446.636 918.812C447.092 918.812 447.44 918.684 447.68 918.428C447.92 918.164 448.04 917.784 448.04 917.288C448.04 916.808 447.912 916.444 447.656 916.196C447.408 915.948 447.04 915.824 446.552 915.824H445.388V918.812H446.636ZM450.896 914.6H453.728C454.664 914.6 455.364 914.792 455.828 915.176C456.292 915.552 456.524 916.128 456.524 916.904C456.524 917.456 456.4 917.928 456.152 918.32C455.904 918.712 455.552 918.988 455.096 919.148V919.172C455.248 919.276 455.368 919.384 455.456 919.496C455.552 919.608 455.632 919.736 455.696 919.88L456.932 923H455.324L454.328 920.384C454.216 920.104 454.076 919.916 453.908 919.82C453.74 919.716 453.464 919.664 453.08 919.664H452.408V923H450.896V914.6ZM453.584 918.452C454.064 918.452 454.428 918.336 454.676 918.104C454.932 917.872 455.06 917.528 455.06 917.072C455.06 916.24 454.56 915.824 453.56 915.824H452.408V918.452H453.584ZM461.201 923.12C460.441 923.12 459.781 922.948 459.221 922.604C458.661 922.252 458.233 921.752 457.937 921.104C457.641 920.456 457.493 919.688 457.493 918.8C457.493 917.912 457.641 917.144 457.937 916.496C458.233 915.848 458.661 915.352 459.221 915.008C459.781 914.656 460.441 914.48 461.201 914.48C461.961 914.48 462.617 914.656 463.169 915.008C463.729 915.352 464.157 915.848 464.453 916.496C464.749 917.144 464.897 917.912 464.897 918.8C464.897 919.688 464.749 920.456 464.453 921.104C464.157 921.752 463.729 922.252 463.169 922.604C462.617 922.948 461.961 923.12 461.201 923.12ZM461.201 921.908C461.873 921.908 462.401 921.632 462.785 921.08C463.177 920.528 463.373 919.768 463.373 918.8C463.373 917.832 463.177 917.072 462.785 916.52C462.401 915.96 461.873 915.68 461.201 915.68C460.521 915.68 459.985 915.96 459.593 916.52C459.209 917.072 459.017 917.832 459.017 918.8C459.017 919.768 459.209 920.528 459.593 921.08C459.985 921.632 460.521 921.908 461.201 921.908ZM467.497 923.12C467.081 923.12 466.681 923.052 466.297 922.916C465.921 922.772 465.605 922.58 465.349 922.34L465.949 921.296C466.149 921.48 466.377 921.628 466.633 921.74C466.897 921.844 467.161 921.896 467.425 921.896C467.841 921.896 468.141 921.756 468.325 921.476C468.509 921.196 468.601 920.74 468.601 920.108V914.6H470.113V920.312C470.113 921.264 469.901 921.972 469.477 922.436C469.053 922.892 468.393 923.12 467.497 923.12ZM471.849 914.6H477.237V915.824H473.361V917.972H476.829V919.196H473.361V921.776H477.237V923H471.849V914.6ZM481.946 923.12C481.178 923.12 480.506 922.944 479.93 922.592C479.362 922.24 478.922 921.74 478.61 921.092C478.298 920.436 478.142 919.672 478.142 918.8C478.142 917.92 478.298 917.156 478.61 916.508C478.922 915.86 479.366 915.36 479.942 915.008C480.518 914.656 481.194 914.48 481.97 914.48C482.618 914.48 483.186 914.604 483.674 914.852C484.162 915.1 484.522 915.448 484.754 915.896L483.89 916.676C483.458 916.028 482.822 915.704 481.982 915.704C481.238 915.704 480.666 915.972 480.266 916.508C479.866 917.036 479.666 917.8 479.666 918.8C479.666 919.792 479.862 920.556 480.254 921.092C480.646 921.628 481.206 921.896 481.934 921.896C482.822 921.896 483.474 921.568 483.89 920.912L484.754 921.692C484.522 922.148 484.162 922.5 483.674 922.748C483.186 922.996 482.61 923.12 481.946 923.12ZM487.783 915.728H485.251V914.6H491.827V915.728H489.295V923H487.783V915.728Z" fill="#272727"/>
<circle cx="174" cy="889" r="17.5" fill="#DED3C2" stroke="#272727" stroke-width="3"/>
<circle cx="174" cy="889" r="8" fill="#272727"/>
<path d="M149.876 850.6H152.564C153.532 850.6 154.264 850.824 154.76 851.272C155.264 851.712 155.516 852.364 155.516 853.228C155.516 854.148 155.256 854.848 154.736 855.328C154.224 855.8 153.48 856.036 152.504 856.036H151.388V859H149.876V850.6ZM152.636 854.812C153.092 854.812 153.44 854.684 153.68 854.428C153.92 854.164 154.04 853.784 154.04 853.288C154.04 852.808 153.912 852.444 153.656 852.196C153.408 851.948 153.04 851.824 152.552 851.824H151.388V854.812H152.636ZM156.896 850.6H159.728C160.664 850.6 161.364 850.792 161.828 851.176C162.292 851.552 162.524 852.128 162.524 852.904C162.524 853.456 162.4 853.928 162.152 854.32C161.904 854.712 161.552 854.988 161.096 855.148V855.172C161.248 855.276 161.368 855.384 161.456 855.496C161.552 855.608 161.632 855.736 161.696 855.88L162.932 859H161.324L160.328 856.384C160.216 856.104 160.076 855.916 159.908 855.82C159.74 855.716 159.464 855.664 159.08 855.664H158.408V859H156.896V850.6ZM159.584 854.452C160.064 854.452 160.428 854.336 160.676 854.104C160.932 853.872 161.06 853.528 161.06 853.072C161.06 852.24 160.56 851.824 159.56 851.824H158.408V854.452H159.584ZM167.201 859.12C166.441 859.12 165.781 858.948 165.221 858.604C164.661 858.252 164.233 857.752 163.937 857.104C163.641 856.456 163.493 855.688 163.493 854.8C163.493 853.912 163.641 853.144 163.937 852.496C164.233 851.848 164.661 851.352 165.221 851.008C165.781 850.656 166.441 850.48 167.201 850.48C167.961 850.48 168.617 850.656 169.169 851.008C169.729 851.352 170.157 851.848 170.453 852.496C170.749 853.144 170.897 853.912 170.897 854.8C170.897 855.688 170.749 856.456 170.453 857.104C170.157 857.752 169.729 858.252 169.169 858.604C168.617 858.948 167.961 859.12 167.201 859.12ZM167.201 857.908C167.873 857.908 168.401 857.632 168.785 857.08C169.177 856.528 169.373 855.768 169.373 854.8C169.373 853.832 169.177 853.072 168.785 852.52C168.401 851.96 167.873 851.68 167.201 851.68C166.521 851.68 165.985 851.96 165.593 852.52C165.209 853.072 165.017 853.832 165.017 854.8C165.017 855.768 165.209 856.528 165.593 857.08C165.985 857.632 166.521 857.908 167.201 857.908ZM173.497 859.12C173.081 859.12 172.681 859.052 172.297 858.916C171.921 858.772 171.605 858.58 171.349 858.34L171.949 857.296C172.149 857.48 172.377 857.628 172.633 857.74C172.897 857.844 173.161 857.896 173.425 857.896C173.841 857.896 174.141 857.756 174.325 857.476C174.509 857.196 174.601 856.74 174.601 856.108V850.6H176.113V856.312C176.113 857.264 175.901 857.972 175.477 858.436C175.053 858.892 174.393 859.12 173.497 859.12ZM177.849 850.6H183.237V851.824H179.361V853.972H182.829V855.196H179.361V857.776H183.237V859H177.849V850.6ZM187.946 859.12C187.178 859.12 186.506 858.944 185.93 858.592C185.362 858.24 184.922 857.74 184.61 857.092C184.298 856.436 184.142 855.672 184.142 854.8C184.142 853.92 184.298 853.156 184.61 852.508C184.922 851.86 185.366 851.36 185.942 851.008C186.518 850.656 187.194 850.48 187.97 850.48C188.618 850.48 189.186 850.604 189.674 850.852C190.162 851.1 190.522 851.448 190.754 851.896L189.89 852.676C189.458 852.028 188.822 851.704 187.982 851.704C187.238 851.704 186.666 851.972 186.266 852.508C185.866 853.036 185.666 853.8 185.666 854.8C185.666 855.792 185.862 856.556 186.254 857.092C186.646 857.628 187.206 857.896 187.934 857.896C188.822 857.896 189.474 857.568 189.89 856.912L190.754 857.692C190.522 858.148 190.162 858.5 189.674 858.748C189.186 858.996 188.61 859.12 187.946 859.12ZM193.783 851.728H191.251V850.6H197.827V851.728H195.295V859H193.783V851.728Z" fill="#272727"/>
<circle cx="419" cy="209" r="17.5" fill="#DED3C2" stroke="#272727" stroke-width="3"/>
<circle cx="419" cy="209" r="8" fill="#272727"/>
<path d="M394.876 170.6H397.564C398.532 170.6 399.264 170.824 399.76 171.272C400.264 171.712 400.516 172.364 400.516 173.228C400.516 174.148 400.256 174.848 399.736 175.328C399.224 175.8 398.48 176.036 397.504 176.036H396.388V179H394.876V170.6ZM397.636 174.812C398.092 174.812 398.44 174.684 398.68 174.428C398.92 174.164 399.04 173.784 399.04 173.288C399.04 172.808 398.912 172.444 398.656 172.196C398.408 171.948 398.04 171.824 397.552 171.824H396.388V174.812H397.636ZM401.896 170.6H404.728C405.664 170.6 406.364 170.792 406.828 171.176C407.292 171.552 407.524 172.128 407.524 172.904C407.524 173.456 407.4 173.928 407.152 174.32C406.904 174.712 406.552 174.988 406.096 175.148V175.172C406.248 175.276 406.368 175.384 406.456 175.496C406.552 175.608 406.632 175.736 406.696 175.88L407.932 179H406.324L405.328 176.384C405.216 176.104 405.076 175.916 404.908 175.82C404.74 175.716 404.464 175.664 404.08 175.664H403.408V179H401.896V170.6ZM404.584 174.452C405.064 174.452 405.428 174.336 405.676 174.104C405.932 173.872 406.06 173.528 406.06 173.072C406.06 172.24 405.56 171.824 404.56 171.824H403.408V174.452H404.584ZM412.201 179.12C411.441 179.12 410.781 178.948 410.221 178.604C409.661 178.252 409.233 177.752 408.937 177.104C408.641 176.456 408.493 175.688 408.493 174.8C408.493 173.912 408.641 173.144 408.937 172.496C409.233 171.848 409.661 171.352 410.221 171.008C410.781 170.656 411.441 170.48 412.201 170.48C412.961 170.48 413.617 170.656 414.169 171.008C414.729 171.352 415.157 171.848 415.453 172.496C415.749 173.144 415.897 173.912 415.897 174.8C415.897 175.688 415.749 176.456 415.453 177.104C415.157 177.752 414.729 178.252 414.169 178.604C413.617 178.948 412.961 179.12 412.201 179.12ZM412.201 177.908C412.873 177.908 413.401 177.632 413.785 177.08C414.177 176.528 414.373 175.768 414.373 174.8C414.373 173.832 414.177 173.072 413.785 172.52C413.401 171.96 412.873 171.68 412.201 171.68C411.521 171.68 410.985 171.96 410.593 172.52C410.209 173.072 410.017 173.832 410.017 174.8C410.017 175.768 410.209 176.528 410.593 177.08C410.985 177.632 411.521 177.908 412.201 177.908ZM418.497 179.12C418.081 179.12 417.681 179.052 417.297 178.916C416.921 178.772 416.605 178.58 416.349 178.34L416.949 177.296C417.149 177.48 417.377 177.628 417.633 177.74C417.897 177.844 418.161 177.896 418.425 177.896C418.841 177.896 419.141 177.756 419.325 177.476C419.509 177.196 419.601 176.74 419.601 176.108V170.6H421.113V176.312C421.113 177.264 420.901 177.972 420.477 178.436C420.053 178.892 419.393 179.12 418.497 179.12ZM422.849 170.6H428.237V171.824H424.361V173.972H427.829V175.196H424.361V177.776H428.237V179H422.849V170.6ZM432.946 179.12C432.178 179.12 431.506 178.944 430.93 178.592C430.362 178.24 429.922 177.74 429.61 177.092C429.298 176.436 429.142 175.672 429.142 174.8C429.142 173.92 429.298 173.156 429.61 172.508C429.922 171.86 430.366 171.36 430.942 171.008C431.518 170.656 432.194 170.48 432.97 170.48C433.618 170.48 434.186 170.604 434.674 170.852C435.162 171.1 435.522 171.448 435.754 171.896L434.89 172.676C434.458 172.028 433.822 171.704 432.982 171.704C432.238 171.704 431.666 171.972 431.266 172.508C430.866 173.036 430.666 173.8 430.666 174.8C430.666 175.792 430.862 176.556 431.254 177.092C431.646 177.628 432.206 177.896 432.934 177.896C433.822 177.896 434.474 177.568 434.89 176.912L435.754 177.692C435.522 178.148 435.162 178.5 434.674 178.748C434.186 178.996 433.61 179.12 432.946 179.12ZM438.783 171.728H436.251V170.6H442.827V171.728H440.295V179H438.783V171.728Z" fill="#272727"/>
<circle cx="681" cy="342" r="26.7632" fill="#DED3C2" stroke="#272727" stroke-width="3"/>
<circle cx="681" cy="342" r="12.6316" fill="#272727"/>
<path d="M647.168 291.8H650.752C652.043 291.8 653.019 292.099 653.68 292.696C654.352 293.283 654.688 294.152 654.688 295.304C654.688 296.531 654.341 297.464 653.648 298.104C652.965 298.733 651.973 299.048 650.672 299.048H649.184V303H647.168V291.8ZM650.848 297.416C651.456 297.416 651.92 297.245 652.24 296.904C652.56 296.552 652.72 296.045 652.72 295.384C652.72 294.744 652.549 294.259 652.208 293.928C651.877 293.597 651.387 293.432 650.736 293.432H649.184V297.416H650.848ZM656.527 291.8H660.303C661.551 291.8 662.485 292.056 663.103 292.568C663.722 293.069 664.031 293.837 664.031 294.872C664.031 295.608 663.866 296.237 663.535 296.76C663.205 297.283 662.735 297.651 662.127 297.864V297.896C662.33 298.035 662.49 298.179 662.607 298.328C662.735 298.477 662.842 298.648 662.927 298.84L664.575 303H662.431L661.103 299.512C660.954 299.139 660.767 298.888 660.543 298.76C660.319 298.621 659.951 298.552 659.439 298.552H658.543V303H656.527V291.8ZM660.111 296.936C660.751 296.936 661.237 296.781 661.567 296.472C661.909 296.163 662.079 295.704 662.079 295.096C662.079 293.987 661.413 293.432 660.079 293.432H658.543V296.936H660.111ZM670.269 303.16C669.255 303.16 668.375 302.931 667.629 302.472C666.882 302.003 666.311 301.336 665.917 300.472C665.522 299.608 665.325 298.584 665.325 297.4C665.325 296.216 665.522 295.192 665.917 294.328C666.311 293.464 666.882 292.803 667.629 292.344C668.375 291.875 669.255 291.64 670.269 291.64C671.282 291.64 672.157 291.875 672.892 292.344C673.639 292.803 674.21 293.464 674.605 294.328C674.999 295.192 675.197 296.216 675.197 297.4C675.197 298.584 674.999 299.608 674.605 300.472C674.21 301.336 673.639 302.003 672.892 302.472C672.157 302.931 671.282 303.16 670.269 303.16ZM670.269 301.544C671.165 301.544 671.869 301.176 672.381 300.44C672.903 299.704 673.165 298.691 673.165 297.4C673.165 296.109 672.903 295.096 672.381 294.36C671.869 293.613 671.165 293.24 670.269 293.24C669.362 293.24 668.647 293.613 668.125 294.36C667.613 295.096 667.357 296.109 667.357 297.4C667.357 298.691 667.613 299.704 668.125 300.44C668.647 301.176 669.362 301.544 670.269 301.544ZM678.663 303.16C678.108 303.16 677.575 303.069 677.063 302.888C676.562 302.696 676.14 302.44 675.799 302.12L676.599 300.728C676.866 300.973 677.17 301.171 677.511 301.32C677.863 301.459 678.215 301.528 678.567 301.528C679.122 301.528 679.522 301.341 679.767 300.968C680.012 300.595 680.135 299.987 680.135 299.144V291.8H682.151V299.416C682.151 300.685 681.868 301.629 681.303 302.248C680.738 302.856 679.858 303.16 678.663 303.16ZM684.465 291.8H691.649V293.432H686.481V296.296H691.105V297.928H686.481V301.368H691.649V303H684.465V291.8ZM697.928 303.16C696.904 303.16 696.008 302.925 695.24 302.456C694.482 301.987 693.896 301.32 693.48 300.456C693.064 299.581 692.856 298.563 692.856 297.4C692.856 296.227 693.064 295.208 693.48 294.344C693.896 293.48 694.488 292.813 695.256 292.344C696.024 291.875 696.925 291.64 697.96 291.64C698.824 291.64 699.581 291.805 700.232 292.136C700.882 292.467 701.362 292.931 701.672 293.528L700.52 294.568C699.944 293.704 699.096 293.272 697.976 293.272C696.984 293.272 696.221 293.629 695.688 294.344C695.154 295.048 694.888 296.067 694.888 297.4C694.888 298.723 695.149 299.741 695.672 300.456C696.194 301.171 696.941 301.528 697.912 301.528C699.096 301.528 699.965 301.091 700.52 300.216L701.672 301.256C701.362 301.864 700.882 302.333 700.232 302.664C699.581 302.995 698.813 303.16 697.928 303.16ZM705.71 293.304H702.334V291.8H711.102V293.304H707.726V303H705.71V293.304Z" fill="#272727"/>
<circle cx="221" cy="512" r="124" fill="#272727"/>
<path d="M154.432 465.984V464.891L229.107 464.781V465.875L154.432 465.984ZM222 585.048L184.28 520.979L183.296 521.525L221.016 585.595L222 585.048ZM292.301 466.859L291.317 466.312L254.8 531.365L255.784 531.912L292.301 466.859Z" fill="#DED3C2"/>
<path d="M157.603 468.608L222.328 580.784L287.053 468.608H157.603ZM167.88 474.621H277.432L222.656 569.523L167.88 474.621Z" fill="#DED3C2"/>
</svg>
