<svg width="70" height="70" viewBox="0 0 70 70" fill="none" xmlns="http://www.w3.org/2000/svg">
<circle cx="35" cy="35" r="33.5" stroke="#272727" stroke-width="3"/>
<path d="M53 33.5C53.8284 33.5 54.5 34.1716 54.5 35C54.5 35.8284 53.8284 36.5 53 36.5V33.5ZM15.9393 36.0607C15.3536 35.4749 15.3536 34.5251 15.9393 33.9393L25.4853 24.3934C26.0711 23.8076 27.0208 23.8076 27.6066 24.3934C28.1924 24.9792 28.1924 25.9289 27.6066 26.5147L19.1213 35L27.6066 43.4853C28.1924 44.0711 28.1924 45.0208 27.6066 45.6066C27.0208 46.1924 26.0711 46.1924 25.4853 45.6066L15.9393 36.0607ZM53 36.5H17V33.5H53V36.5Z" fill="#272727"/>
</svg>
