<svg width="515" height="516" viewBox="0 0 515 516" fill="none" xmlns="http://www.w3.org/2000/svg">
<circle cx="258" cy="258" r="237" fill="#272727"/>
<circle cx="257.5" cy="258.5" r="257" stroke="#4F4F4F"/>
<path d="M175.271 202.005V200.666L266.701 200.532V201.871L175.271 202.005ZM258 347.786L211.816 269.34L210.611 270.009L256.795 348.455L258 347.786ZM344.076 203.076L342.872 202.406L298.16 282.057L299.365 282.726L344.076 203.076Z" fill="#E4DACD"/>
<path d="M179.153 205.218L258.402 342.565L337.651 205.218H179.153ZM191.736 212.58H325.87L258.803 328.777L191.736 212.58Z" fill="#E4DACD"/>
<path d="M195.408 170V147.296H186.528V143.792H207.888V147.296H199.008V170H195.408ZM211.526 170V143.792H224.054C226.742 143.792 228.902 144.56 230.534 146.096C232.166 147.6 232.982 149.616 232.982 152.144C232.982 156.08 230.998 158.56 227.03 159.584L233.798 170H229.526L223.382 160.208H215.126V170H211.526ZM215.126 156.752H223.526C225.35 156.752 226.774 156.352 227.798 155.552C228.854 154.752 229.382 153.616 229.382 152.144C229.382 150.64 228.854 149.456 227.798 148.592C226.774 147.696 225.398 147.248 223.67 147.248H215.126V156.752ZM238.198 170V143.792H241.798V170H238.198ZM258.794 155.696H271.418V170H268.058V166.16C267.002 167.472 265.706 168.496 264.17 169.232C262.666 169.936 261.002 170.288 259.178 170.288C256.682 170.288 254.474 169.712 252.554 168.56C250.634 167.408 249.13 165.824 248.042 163.808C246.954 161.792 246.41 159.488 246.41 156.896C246.41 154.304 246.954 152 248.042 149.984C249.162 147.968 250.682 146.384 252.602 145.232C254.554 144.08 256.778 143.504 259.274 143.504C262.026 143.504 264.49 144.224 266.666 145.664C268.842 147.072 270.41 149.008 271.37 151.472H267.482C266.682 150.064 265.594 148.976 264.218 148.208C262.874 147.408 261.306 147.008 259.514 147.008C257.626 147.008 255.962 147.424 254.522 148.256C253.114 149.088 252.01 150.256 251.21 151.76C250.41 153.232 250.01 154.944 250.01 156.896C250.01 158.848 250.394 160.576 251.162 162.08C251.962 163.552 253.066 164.704 254.474 165.536C255.914 166.336 257.562 166.736 259.418 166.736C261.018 166.736 262.458 166.416 263.738 165.776C265.05 165.104 266.09 164.192 266.858 163.04C267.626 161.888 268.01 160.576 268.01 159.104H258.794V155.696ZM273.471 170L284.559 143.792H288.639L299.727 170H295.743L292.671 162.56H280.527L277.407 170H273.471ZM281.919 159.2H291.231L286.575 148.112L281.919 159.2ZM321.989 143.792H325.589V170H321.653L306.533 149.264V170H302.933V143.792H306.821L321.989 164.528V143.792Z" fill="#E4DACD"/>
<path d="M150.12 413V386.792H154.008L162.888 398.648L171.672 386.792H175.56V413H171.96V392.648L162.888 404.264L153.72 392.648V413H150.12ZM181.808 413V386.792H201.248V390.296H185.408V398.12H199.52V401.624H185.408V409.448H201.248V413H181.808ZM212.189 413V390.296H203.309V386.792H224.669V390.296H215.789V413H212.189ZM223.034 413L234.122 386.792H238.202L249.29 413H245.306L242.234 405.56H230.09L226.97 413H223.034ZM231.482 402.2H240.794L236.138 391.112L231.482 402.2ZM258.39 413L247.83 386.792H251.766L260.31 408.392L268.854 386.792H272.79L262.182 413H258.39ZM276.026 413V386.792H295.466V390.296H279.626V398.12H293.738V401.624H279.626V409.448H295.466V413H276.026ZM300.12 413V386.792H312.648C315.336 386.792 317.496 387.56 319.128 389.096C320.76 390.6 321.576 392.616 321.576 395.144C321.576 399.08 319.592 401.56 315.624 402.584L322.392 413H318.12L311.976 403.208H303.72V413H300.12ZM303.72 399.752H312.12C313.944 399.752 315.368 399.352 316.392 398.552C317.448 397.752 317.976 396.616 317.976 395.144C317.976 393.64 317.448 392.456 316.392 391.592C315.368 390.696 313.992 390.248 312.264 390.248H303.72V399.752ZM336.296 413.288C332.744 413.288 329.96 412.568 327.944 411.128C325.928 409.656 324.92 407.512 324.92 404.696H328.616C328.616 406.328 329.304 407.592 330.68 408.488C332.056 409.384 333.992 409.832 336.488 409.832C338.632 409.832 340.264 409.48 341.384 408.776C342.536 408.072 343.112 407.048 343.112 405.704C343.112 404.84 342.776 404.152 342.104 403.64C341.432 403.096 340.536 402.648 339.416 402.296C338.296 401.944 337.08 401.624 335.768 401.336C334.616 401.048 333.448 400.744 332.264 400.424C331.08 400.072 329.992 399.64 329 399.128C328.008 398.584 327.208 397.896 326.6 397.064C325.992 396.2 325.688 395.144 325.688 393.896C325.688 391.592 326.568 389.784 328.328 388.472C330.12 387.16 332.552 386.504 335.624 386.504C338.76 386.504 341.288 387.224 343.208 388.664C345.128 390.072 346.088 392.008 346.088 394.472H342.392C342.392 393.064 341.784 391.96 340.568 391.16C339.352 390.328 337.704 389.912 335.624 389.912C333.576 389.912 331.992 390.264 330.872 390.968C329.752 391.64 329.192 392.616 329.192 393.896C329.192 394.664 329.512 395.304 330.152 395.816C330.824 396.296 331.704 396.696 332.792 397.016C333.88 397.336 335.064 397.656 336.344 397.976C337.528 398.264 338.728 398.584 339.944 398.936C341.16 399.256 342.264 399.704 343.256 400.28C344.28 400.824 345.096 401.528 345.704 402.392C346.344 403.224 346.664 404.296 346.664 405.608C346.664 408.04 345.752 409.928 343.928 411.272C342.104 412.616 339.56 413.288 336.296 413.288ZM351.12 413V386.792H370.56V390.296H354.72V398.12H368.832V401.624H354.72V409.448H370.56V413H351.12Z" fill="#E4DACD"/>
</svg>
