<?xml version="1.0" encoding="utf-8"?>
<svg width="867" height="1024" viewBox="0 0 867 1024" fill="none" tabindex="9" xmlns="http://www.w3.org/2000/svg">
  <ellipse style="stroke: rgb(0, 0, 0); fill: rgb(255, 255, 255); fill-opacity: 0; fill-rule: nonzero; stroke-dasharray: 8px;" cx="210.44" cy="519.924" rx="383.988" ry="370.632"/>
  <ellipse style="stroke-linecap: round; fill: rgb(255, 255, 255); stroke: rgb(0, 0, 0); fill-rule: evenodd; fill-opacity: 0; stroke-dashoffset: 50px; stroke-miterlimit: 50; stroke-dasharray: 8;" cx="211.272" cy="534.909" rx="512.137" ry="484.528" id="two" tabindex="12" transform="matrix(0.999956, -0.00939, 0, 1.000044, -1.898659, 2.914228)"/>
  <circle cx="158" cy="52" r="17.5" fill="#DED3C2" stroke="#272727" stroke-width="3"/>
  <circle cx="158" cy="52" r="8" fill="#272727"/>
  <path d="M130.022 12.2H133.158C134.287 12.2 135.141 12.4613 135.72 12.984C136.308 13.4973 136.602 14.258 136.602 15.266C136.602 16.3393 136.299 17.156 135.692 17.716C135.095 18.2667 134.227 18.542 133.088 18.542H131.786V22H130.022V12.2ZM133.242 17.114C133.774 17.114 134.18 16.9647 134.46 16.666C134.74 16.358 134.88 15.9147 134.88 15.336C134.88 14.776 134.731 14.3513 134.432 14.062C134.143 13.7727 133.713 13.628 133.144 13.628H131.786V17.114H133.242ZM138.211 12.2H141.515C142.607 12.2 143.424 12.424 143.965 12.872C144.507 13.3107 144.777 13.9827 144.777 14.888C144.777 15.532 144.633 16.0827 144.343 16.54C144.054 16.9973 143.643 17.3193 143.111 17.506V17.534C143.289 17.6553 143.429 17.7813 143.531 17.912C143.643 18.0427 143.737 18.192 143.811 18.36L145.253 22H143.377L142.215 18.948C142.085 18.6213 141.921 18.402 141.725 18.29C141.529 18.1687 141.207 18.108 140.759 18.108H139.975V22H138.211V12.2ZM141.347 16.694C141.907 16.694 142.332 16.5587 142.621 16.288C142.92 16.0173 143.069 15.616 143.069 15.084C143.069 14.1133 142.486 13.628 141.319 13.628H139.975V16.694H141.347ZM150.235 22.14C149.348 22.14 148.578 21.9393 147.925 21.538C147.272 21.1273 146.772 20.544 146.427 19.788C146.082 19.032 145.909 18.136 145.909 17.1C145.909 16.064 146.082 15.168 146.427 14.412C146.772 13.656 147.272 13.0773 147.925 12.676C148.578 12.2653 149.348 12.06 150.235 12.06C151.122 12.06 151.887 12.2653 152.531 12.676C153.184 13.0773 153.684 13.656 154.029 14.412C154.374 15.168 154.547 16.064 154.547 17.1C154.547 18.136 154.374 19.032 154.029 19.788C153.684 20.544 153.184 21.1273 152.531 21.538C151.887 21.9393 151.122 22.14 150.235 22.14ZM150.235 20.726C151.019 20.726 151.635 20.404 152.083 19.76C152.54 19.116 152.769 18.2293 152.769 17.1C152.769 15.9707 152.54 15.084 152.083 14.44C151.635 13.7867 151.019 13.46 150.235 13.46C149.442 13.46 148.816 13.7867 148.359 14.44C147.911 15.084 147.687 15.9707 147.687 17.1C147.687 18.2293 147.911 19.116 148.359 19.76C148.816 20.404 149.442 20.726 150.235 20.726ZM157.58 22.14C157.095 22.14 156.628 22.0607 156.18 21.902C155.742 21.734 155.373 21.51 155.074 21.23L155.774 20.012C156.008 20.2267 156.274 20.3993 156.572 20.53C156.88 20.6513 157.188 20.712 157.496 20.712C157.982 20.712 158.332 20.5487 158.546 20.222C158.761 19.8953 158.868 19.3633 158.868 18.626V12.2H160.632V18.864C160.632 19.9747 160.385 20.8007 159.89 21.342C159.396 21.874 158.626 22.14 157.58 22.14ZM162.657 12.2H168.943V13.628H164.421V16.134H168.467V17.562H164.421V20.572H168.943V22H162.657V12.2ZM174.437 22.14C173.541 22.14 172.757 21.9347 172.085 21.524C171.422 21.1133 170.909 20.53 170.545 19.774C170.181 19.0087 169.999 18.1173 169.999 17.1C169.999 16.0733 170.181 15.182 170.545 14.426C170.909 13.67 171.427 13.0867 172.099 12.676C172.771 12.2653 173.559 12.06 174.465 12.06C175.221 12.06 175.883 12.2047 176.453 12.494C177.022 12.7833 177.442 13.1893 177.713 13.712L176.705 14.622C176.201 13.866 175.459 13.488 174.479 13.488C173.611 13.488 172.943 13.8007 172.477 14.426C172.01 15.042 171.777 15.9333 171.777 17.1C171.777 18.2573 172.005 19.1487 172.463 19.774C172.92 20.3993 173.573 20.712 174.423 20.712C175.459 20.712 176.219 20.3293 176.705 19.564L177.713 20.474C177.442 21.006 177.022 21.4167 176.453 21.706C175.883 21.9953 175.211 22.14 174.437 22.14ZM181.246 13.516H178.292V12.2H185.964V13.516H183.01V22H181.246V13.516Z" fill="#272727"/>
  <circle cx="468" cy="953" r="17.5" fill="#DED3C2" stroke="#272727" stroke-width="3"/>
  <circle cx="468" cy="953" r="8" fill="#272727"/>
  <path d="M443.876 914.6H446.564C447.532 914.6 448.264 914.824 448.76 915.272C449.264 915.712 449.516 916.364 449.516 917.228C449.516 918.148 449.256 918.848 448.736 919.328C448.224 919.8 447.48 920.036 446.504 920.036H445.388V923H443.876V914.6ZM446.636 918.812C447.092 918.812 447.44 918.684 447.68 918.428C447.92 918.164 448.04 917.784 448.04 917.288C448.04 916.808 447.912 916.444 447.656 916.196C447.408 915.948 447.04 915.824 446.552 915.824H445.388V918.812H446.636ZM450.896 914.6H453.728C454.664 914.6 455.364 914.792 455.828 915.176C456.292 915.552 456.524 916.128 456.524 916.904C456.524 917.456 456.4 917.928 456.152 918.32C455.904 918.712 455.552 918.988 455.096 919.148V919.172C455.248 919.276 455.368 919.384 455.456 919.496C455.552 919.608 455.632 919.736 455.696 919.88L456.932 923H455.324L454.328 920.384C454.216 920.104 454.076 919.916 453.908 919.82C453.74 919.716 453.464 919.664 453.08 919.664H452.408V923H450.896V914.6ZM453.584 918.452C454.064 918.452 454.428 918.336 454.676 918.104C454.932 917.872 455.06 917.528 455.06 917.072C455.06 916.24 454.56 915.824 453.56 915.824H452.408V918.452H453.584ZM461.201 923.12C460.441 923.12 459.781 922.948 459.221 922.604C458.661 922.252 458.233 921.752 457.937 921.104C457.641 920.456 457.493 919.688 457.493 918.8C457.493 917.912 457.641 917.144 457.937 916.496C458.233 915.848 458.661 915.352 459.221 915.008C459.781 914.656 460.441 914.48 461.201 914.48C461.961 914.48 462.617 914.656 463.169 915.008C463.729 915.352 464.157 915.848 464.453 916.496C464.749 917.144 464.897 917.912 464.897 918.8C464.897 919.688 464.749 920.456 464.453 921.104C464.157 921.752 463.729 922.252 463.169 922.604C462.617 922.948 461.961 923.12 461.201 923.12ZM461.201 921.908C461.873 921.908 462.401 921.632 462.785 921.08C463.177 920.528 463.373 919.768 463.373 918.8C463.373 917.832 463.177 917.072 462.785 916.52C462.401 915.96 461.873 915.68 461.201 915.68C460.521 915.68 459.985 915.96 459.593 916.52C459.209 917.072 459.017 917.832 459.017 918.8C459.017 919.768 459.209 920.528 459.593 921.08C459.985 921.632 460.521 921.908 461.201 921.908ZM467.497 923.12C467.081 923.12 466.681 923.052 466.297 922.916C465.921 922.772 465.605 922.58 465.349 922.34L465.949 921.296C466.149 921.48 466.377 921.628 466.633 921.74C466.897 921.844 467.161 921.896 467.425 921.896C467.841 921.896 468.141 921.756 468.325 921.476C468.509 921.196 468.601 920.74 468.601 920.108V914.6H470.113V920.312C470.113 921.264 469.901 921.972 469.477 922.436C469.053 922.892 468.393 923.12 467.497 923.12ZM471.849 914.6H477.237V915.824H473.361V917.972H476.829V919.196H473.361V921.776H477.237V923H471.849V914.6ZM481.946 923.12C481.178 923.12 480.506 922.944 479.93 922.592C479.362 922.24 478.922 921.74 478.61 921.092C478.298 920.436 478.142 919.672 478.142 918.8C478.142 917.92 478.298 917.156 478.61 916.508C478.922 915.86 479.366 915.36 479.942 915.008C480.518 914.656 481.194 914.48 481.97 914.48C482.618 914.48 483.186 914.604 483.674 914.852C484.162 915.1 484.522 915.448 484.754 915.896L483.89 916.676C483.458 916.028 482.822 915.704 481.982 915.704C481.238 915.704 480.666 915.972 480.266 916.508C479.866 917.036 479.666 917.8 479.666 918.8C479.666 919.792 479.862 920.556 480.254 921.092C480.646 921.628 481.206 921.896 481.934 921.896C482.822 921.896 483.474 921.568 483.89 920.912L484.754 921.692C484.522 922.148 484.162 922.5 483.674 922.748C483.186 922.996 482.61 923.12 481.946 923.12ZM487.783 915.728H485.251V914.6H491.827V915.728H489.295V923H487.783V915.728Z" fill="#272727"/>
  <circle cx="174" cy="889" r="17.5" fill="#DED3C2" stroke="#272727" stroke-width="3"/>
  <circle cx="174" cy="889" r="8" fill="#272727"/>
  <path d="M149.876 850.6H152.564C153.532 850.6 154.264 850.824 154.76 851.272C155.264 851.712 155.516 852.364 155.516 853.228C155.516 854.148 155.256 854.848 154.736 855.328C154.224 855.8 153.48 856.036 152.504 856.036H151.388V859H149.876V850.6ZM152.636 854.812C153.092 854.812 153.44 854.684 153.68 854.428C153.92 854.164 154.04 853.784 154.04 853.288C154.04 852.808 153.912 852.444 153.656 852.196C153.408 851.948 153.04 851.824 152.552 851.824H151.388V854.812H152.636ZM156.896 850.6H159.728C160.664 850.6 161.364 850.792 161.828 851.176C162.292 851.552 162.524 852.128 162.524 852.904C162.524 853.456 162.4 853.928 162.152 854.32C161.904 854.712 161.552 854.988 161.096 855.148V855.172C161.248 855.276 161.368 855.384 161.456 855.496C161.552 855.608 161.632 855.736 161.696 855.88L162.932 859H161.324L160.328 856.384C160.216 856.104 160.076 855.916 159.908 855.82C159.74 855.716 159.464 855.664 159.08 855.664H158.408V859H156.896V850.6ZM159.584 854.452C160.064 854.452 160.428 854.336 160.676 854.104C160.932 853.872 161.06 853.528 161.06 853.072C161.06 852.24 160.56 851.824 159.56 851.824H158.408V854.452H159.584ZM167.201 859.12C166.441 859.12 165.781 858.948 165.221 858.604C164.661 858.252 164.233 857.752 163.937 857.104C163.641 856.456 163.493 855.688 163.493 854.8C163.493 853.912 163.641 853.144 163.937 852.496C164.233 851.848 164.661 851.352 165.221 851.008C165.781 850.656 166.441 850.48 167.201 850.48C167.961 850.48 168.617 850.656 169.169 851.008C169.729 851.352 170.157 851.848 170.453 852.496C170.749 853.144 170.897 853.912 170.897 854.8C170.897 855.688 170.749 856.456 170.453 857.104C170.157 857.752 169.729 858.252 169.169 858.604C168.617 858.948 167.961 859.12 167.201 859.12ZM167.201 857.908C167.873 857.908 168.401 857.632 168.785 857.08C169.177 856.528 169.373 855.768 169.373 854.8C169.373 853.832 169.177 853.072 168.785 852.52C168.401 851.96 167.873 851.68 167.201 851.68C166.521 851.68 165.985 851.96 165.593 852.52C165.209 853.072 165.017 853.832 165.017 854.8C165.017 855.768 165.209 856.528 165.593 857.08C165.985 857.632 166.521 857.908 167.201 857.908ZM173.497 859.12C173.081 859.12 172.681 859.052 172.297 858.916C171.921 858.772 171.605 858.58 171.349 858.34L171.949 857.296C172.149 857.48 172.377 857.628 172.633 857.74C172.897 857.844 173.161 857.896 173.425 857.896C173.841 857.896 174.141 857.756 174.325 857.476C174.509 857.196 174.601 856.74 174.601 856.108V850.6H176.113V856.312C176.113 857.264 175.901 857.972 175.477 858.436C175.053 858.892 174.393 859.12 173.497 859.12ZM177.849 850.6H183.237V851.824H179.361V853.972H182.829V855.196H179.361V857.776H183.237V859H177.849V850.6ZM187.946 859.12C187.178 859.12 186.506 858.944 185.93 858.592C185.362 858.24 184.922 857.74 184.61 857.092C184.298 856.436 184.142 855.672 184.142 854.8C184.142 853.92 184.298 853.156 184.61 852.508C184.922 851.86 185.366 851.36 185.942 851.008C186.518 850.656 187.194 850.48 187.97 850.48C188.618 850.48 189.186 850.604 189.674 850.852C190.162 851.1 190.522 851.448 190.754 851.896L189.89 852.676C189.458 852.028 188.822 851.704 187.982 851.704C187.238 851.704 186.666 851.972 186.266 852.508C185.866 853.036 185.666 853.8 185.666 854.8C185.666 855.792 185.862 856.556 186.254 857.092C186.646 857.628 187.206 857.896 187.934 857.896C188.822 857.896 189.474 857.568 189.89 856.912L190.754 857.692C190.522 858.148 190.162 858.5 189.674 858.748C189.186 858.996 188.61 859.12 187.946 859.12ZM193.783 851.728H191.251V850.6H197.827V851.728H195.295V859H193.783V851.728Z" fill="#272727"/>
  <circle cx="419" cy="209" r="17.5" fill="#DED3C2" stroke="#272727" stroke-width="3"/>
  <circle cx="419" cy="209" r="8" fill="#272727"/>
  <path d="M394.876 170.6H397.564C398.532 170.6 399.264 170.824 399.76 171.272C400.264 171.712 400.516 172.364 400.516 173.228C400.516 174.148 400.256 174.848 399.736 175.328C399.224 175.8 398.48 176.036 397.504 176.036H396.388V179H394.876V170.6ZM397.636 174.812C398.092 174.812 398.44 174.684 398.68 174.428C398.92 174.164 399.04 173.784 399.04 173.288C399.04 172.808 398.912 172.444 398.656 172.196C398.408 171.948 398.04 171.824 397.552 171.824H396.388V174.812H397.636ZM401.896 170.6H404.728C405.664 170.6 406.364 170.792 406.828 171.176C407.292 171.552 407.524 172.128 407.524 172.904C407.524 173.456 407.4 173.928 407.152 174.32C406.904 174.712 406.552 174.988 406.096 175.148V175.172C406.248 175.276 406.368 175.384 406.456 175.496C406.552 175.608 406.632 175.736 406.696 175.88L407.932 179H406.324L405.328 176.384C405.216 176.104 405.076 175.916 404.908 175.82C404.74 175.716 404.464 175.664 404.08 175.664H403.408V179H401.896V170.6ZM404.584 174.452C405.064 174.452 405.428 174.336 405.676 174.104C405.932 173.872 406.06 173.528 406.06 173.072C406.06 172.24 405.56 171.824 404.56 171.824H403.408V174.452H404.584ZM412.201 179.12C411.441 179.12 410.781 178.948 410.221 178.604C409.661 178.252 409.233 177.752 408.937 177.104C408.641 176.456 408.493 175.688 408.493 174.8C408.493 173.912 408.641 173.144 408.937 172.496C409.233 171.848 409.661 171.352 410.221 171.008C410.781 170.656 411.441 170.48 412.201 170.48C412.961 170.48 413.617 170.656 414.169 171.008C414.729 171.352 415.157 171.848 415.453 172.496C415.749 173.144 415.897 173.912 415.897 174.8C415.897 175.688 415.749 176.456 415.453 177.104C415.157 177.752 414.729 178.252 414.169 178.604C413.617 178.948 412.961 179.12 412.201 179.12ZM412.201 177.908C412.873 177.908 413.401 177.632 413.785 177.08C414.177 176.528 414.373 175.768 414.373 174.8C414.373 173.832 414.177 173.072 413.785 172.52C413.401 171.96 412.873 171.68 412.201 171.68C411.521 171.68 410.985 171.96 410.593 172.52C410.209 173.072 410.017 173.832 410.017 174.8C410.017 175.768 410.209 176.528 410.593 177.08C410.985 177.632 411.521 177.908 412.201 177.908ZM418.497 179.12C418.081 179.12 417.681 179.052 417.297 178.916C416.921 178.772 416.605 178.58 416.349 178.34L416.949 177.296C417.149 177.48 417.377 177.628 417.633 177.74C417.897 177.844 418.161 177.896 418.425 177.896C418.841 177.896 419.141 177.756 419.325 177.476C419.509 177.196 419.601 176.74 419.601 176.108V170.6H421.113V176.312C421.113 177.264 420.901 177.972 420.477 178.436C420.053 178.892 419.393 179.12 418.497 179.12ZM422.849 170.6H428.237V171.824H424.361V173.972H427.829V175.196H424.361V177.776H428.237V179H422.849V170.6ZM432.946 179.12C432.178 179.12 431.506 178.944 430.93 178.592C430.362 178.24 429.922 177.74 429.61 177.092C429.298 176.436 429.142 175.672 429.142 174.8C429.142 173.92 429.298 173.156 429.61 172.508C429.922 171.86 430.366 171.36 430.942 171.008C431.518 170.656 432.194 170.48 432.97 170.48C433.618 170.48 434.186 170.604 434.674 170.852C435.162 171.1 435.522 171.448 435.754 171.896L434.89 172.676C434.458 172.028 433.822 171.704 432.982 171.704C432.238 171.704 431.666 171.972 431.266 172.508C430.866 173.036 430.666 173.8 430.666 174.8C430.666 175.792 430.862 176.556 431.254 177.092C431.646 177.628 432.206 177.896 432.934 177.896C433.822 177.896 434.474 177.568 434.89 176.912L435.754 177.692C435.522 178.148 435.162 178.5 434.674 178.748C434.186 178.996 433.61 179.12 432.946 179.12ZM438.783 171.728H436.251V170.6H442.827V171.728H440.295V179H438.783V171.728Z" fill="#272727"/>
  <circle cx="681" cy="342" r="26.7632" fill="#DED3C2" stroke="#272727" stroke-width="3" id="one" tabindex="5"/>
  <circle cx="681" cy="342" r="12.6316" fill="#272727" tabindex="7"/>
  <path d="M647.168 291.8H650.752C652.043 291.8 653.019 292.099 653.68 292.696C654.352 293.283 654.688 294.152 654.688 295.304C654.688 296.531 654.341 297.464 653.648 298.104C652.965 298.733 651.973 299.048 650.672 299.048H649.184V303H647.168V291.8ZM650.848 297.416C651.456 297.416 651.92 297.245 652.24 296.904C652.56 296.552 652.72 296.045 652.72 295.384C652.72 294.744 652.549 294.259 652.208 293.928C651.877 293.597 651.387 293.432 650.736 293.432H649.184V297.416H650.848ZM656.527 291.8H660.303C661.551 291.8 662.485 292.056 663.103 292.568C663.722 293.069 664.031 293.837 664.031 294.872C664.031 295.608 663.866 296.237 663.535 296.76C663.205 297.283 662.735 297.651 662.127 297.864V297.896C662.33 298.035 662.49 298.179 662.607 298.328C662.735 298.477 662.842 298.648 662.927 298.84L664.575 303H662.431L661.103 299.512C660.954 299.139 660.767 298.888 660.543 298.76C660.319 298.621 659.951 298.552 659.439 298.552H658.543V303H656.527V291.8ZM660.111 296.936C660.751 296.936 661.237 296.781 661.567 296.472C661.909 296.163 662.079 295.704 662.079 295.096C662.079 293.987 661.413 293.432 660.079 293.432H658.543V296.936H660.111ZM670.269 303.16C669.255 303.16 668.375 302.931 667.629 302.472C666.882 302.003 666.311 301.336 665.917 300.472C665.522 299.608 665.325 298.584 665.325 297.4C665.325 296.216 665.522 295.192 665.917 294.328C666.311 293.464 666.882 292.803 667.629 292.344C668.375 291.875 669.255 291.64 670.269 291.64C671.282 291.64 672.157 291.875 672.892 292.344C673.639 292.803 674.21 293.464 674.605 294.328C674.999 295.192 675.197 296.216 675.197 297.4C675.197 298.584 674.999 299.608 674.605 300.472C674.21 301.336 673.639 302.003 672.892 302.472C672.157 302.931 671.282 303.16 670.269 303.16ZM670.269 301.544C671.165 301.544 671.869 301.176 672.381 300.44C672.903 299.704 673.165 298.691 673.165 297.4C673.165 296.109 672.903 295.096 672.381 294.36C671.869 293.613 671.165 293.24 670.269 293.24C669.362 293.24 668.647 293.613 668.125 294.36C667.613 295.096 667.357 296.109 667.357 297.4C667.357 298.691 667.613 299.704 668.125 300.44C668.647 301.176 669.362 301.544 670.269 301.544ZM678.663 303.16C678.108 303.16 677.575 303.069 677.063 302.888C676.562 302.696 676.14 302.44 675.799 302.12L676.599 300.728C676.866 300.973 677.17 301.171 677.511 301.32C677.863 301.459 678.215 301.528 678.567 301.528C679.122 301.528 679.522 301.341 679.767 300.968C680.012 300.595 680.135 299.987 680.135 299.144V291.8H682.151V299.416C682.151 300.685 681.868 301.629 681.303 302.248C680.738 302.856 679.858 303.16 678.663 303.16ZM684.465 291.8H691.649V293.432H686.481V296.296H691.105V297.928H686.481V301.368H691.649V303H684.465V291.8ZM697.928 303.16C696.904 303.16 696.008 302.925 695.24 302.456C694.482 301.987 693.896 301.32 693.48 300.456C693.064 299.581 692.856 298.563 692.856 297.4C692.856 296.227 693.064 295.208 693.48 294.344C693.896 293.48 694.488 292.813 695.256 292.344C696.024 291.875 696.925 291.64 697.96 291.64C698.824 291.64 699.581 291.805 700.232 292.136C700.882 292.467 701.362 292.931 701.672 293.528L700.52 294.568C699.944 293.704 699.096 293.272 697.976 293.272C696.984 293.272 696.221 293.629 695.688 294.344C695.154 295.048 694.888 296.067 694.888 297.4C694.888 298.723 695.149 299.741 695.672 300.456C696.194 301.171 696.941 301.528 697.912 301.528C699.096 301.528 699.965 301.091 700.52 300.216L701.672 301.256C701.362 301.864 700.882 302.333 700.232 302.664C699.581 302.995 698.813 303.16 697.928 303.16ZM705.71 293.304H702.334V291.8H711.102V293.304H707.726V303H705.71V293.304Z" fill="#272727"/>
  <circle cx="221" cy="512" r="124" fill="#272727"/>
  <path d="M154.432 465.984V464.891L229.107 464.781V465.875L154.432 465.984ZM222 585.048L184.28 520.979L183.296 521.525L221.016 585.595L222 585.048ZM292.301 466.859L291.317 466.312L254.8 531.365L255.784 531.912L292.301 466.859Z" fill="#DED3C2"/>
  <path d="M157.603 468.608L222.328 580.784L287.053 468.608H157.603ZM167.88 474.621H277.432L222.656 569.523L167.88 474.621Z" fill="#DED3C2"/>
</svg>