<svg width="70" height="70" viewBox="0 0 70 70" fill="none" xmlns="http://www.w3.org/2000/svg">
<circle r="33.5" transform="matrix(-1 0 0 1 35 35)" stroke="#272727" stroke-width="3"/>
<path d="M17 33.5C16.1716 33.5 15.5 34.1716 15.5 35C15.5 35.8284 16.1716 36.5 17 36.5V33.5ZM54.0607 36.0607C54.6464 35.4749 54.6464 34.5251 54.0607 33.9393L44.5147 24.3934C43.9289 23.8076 42.9792 23.8076 42.3934 24.3934C41.8076 24.9792 41.8076 25.9289 42.3934 26.5147L50.8787 35L42.3934 43.4853C41.8076 44.0711 41.8076 45.0208 42.3934 45.6066C42.9792 46.1924 43.9289 46.1924 44.5147 45.6066L54.0607 36.0607ZM17 36.5H53V33.5H17V36.5Z" fill="#272727"/>
</svg>
