<svg width="1440" height="346" viewBox="0 0 1440 346" fill="none" xmlns="http://www.w3.org/2000/svg">
<path d="M1529.53 37.2867L1530.86 36.5982L1528.1 31.2415L1526.76 31.9299L1524 26.5731L1525.33 25.8847L1522.56 20.5279L1521.23 21.2163L1518.46 15.8595L1519.8 15.1711L1517.03 9.8143L1515.7 10.5027L1512.93 5.14594L1514.26 4.45749L1511.49 -0.899261L1510.16 -0.210846L1507.39 -5.56766L1508.73 -6.25607L1505.96 -11.6129L1504.63 -10.9244L1501.86 -16.2812L1503.19 -16.9697L1500.43 -22.3265L1499.09 -21.638L1496.33 -26.9948L1497.66 -27.6833L1494.89 -33.0401L1493.56 -32.3516L1490.79 -37.7084L1492.12 -38.3969L1489.36 -43.7537L1488.02 -43.0652L1485.26 -48.422L1486.59 -49.1105L1483.82 -54.4673L1482.49 -53.7788L1479.72 -59.1356L1481.05 -59.824L1478.29 -65.1808L1476.95 -64.4924L1474.19 -69.8492L1475.52 -70.5376L1472.75 -75.8944L1471.42 -75.206L1468.65 -80.5628L1469.99 -81.2512L1467.22 -86.608L1465.89 -85.9196L1463.12 -91.2764L1464.45 -91.9648L1461.68 -97.3216L1460.35 -96.6332L1459.39 -98.5H1457.32V-100H1451.36V-98.5H1445.4V-100H1439.44V-98.5H1433.48V-100H1427.52V-98.5H1421.55V-100H1415.59V-98.5H1409.63V-100H1403.67V-98.5H1397.71V-100H1391.75V-98.5H1385.79V-100H1379.83V-98.5H1373.87V-100H1367.91V-98.5H1361.95V-100H1355.98V-98.5H1350.02V-100H1344.06V-98.5H1338.1V-100H1332.14V-98.5H1326.18V-100H1320.22V-98.5H1314.26V-100H1308.3V-98.5H1302.34V-100H1296.38V-98.5H1290.42V-100H1284.45V-98.5H1278.49V-100H1272.53V-98.5H1266.57V-100H1260.61V-98.5H1254.65V-100H1248.69V-98.5H1242.73V-100H1236.77V-98.5H1230.81V-100H1224.85V-98.5H1218.88V-100H1212.92V-98.5H1206.96V-100H1201V-98.5H1195.04V-100H1189.08V-98.5H1183.12V-100H1177.16V-98.5H1171.2V-100H1165.24V-98.5H1159.28V-100H1153.31V-98.5H1147.35V-100H1141.39V-98.5H1135.43V-100H1129.47V-98.5H1123.51V-100H1117.55V-98.5H1111.59V-100H1105.63V-98.5H1099.67V-100H1093.71V-98.5H1087.74V-100H1081.78V-98.5H1075.82V-100H1069.86V-98.5H1063.9V-100H1057.94V-98.5H1051.98V-100H1046.02V-98.5H1040.06V-100H1034.1V-98.5H1028.14V-100H1022.17V-98.5H1016.21V-100H1010.25V-98.5H1004.29V-100H998.331V-98.5H992.37V-100H986.409V-98.5H980.448V-100H974.487V-98.5H968.526V-100H962.566V-98.5H956.605V-100H950.644V-98.5H944.683V-100H938.722V-98.5H932.761V-100H926.8V-98.5H920.839V-100H914.878V-98.5H908.917V-100H902.956V-98.5H896.996V-100H891.035V-98.5H885.074V-100H879.113V-98.5H873.152V-100H867.191V-98.5H861.23V-100H855.269V-98.5H849.308V-100H843.347V-98.5H837.386V-100H831.426V-98.5H825.465V-100H819.504V-98.5H813.543V-100H807.582V-98.5H801.621V-100H795.66V-98.5H789.699V-100H783.738V-98.5H777.777V-100H771.816V-98.5H765.856V-100H759.895V-98.5H753.934V-100H747.973V-98.5H742.012V-100H736.051V-98.5H730.09V-100H724.129V-98.5H721.149H718.129V-100H712.089V-98.5H706.049V-100H700.009V-98.5H693.97V-100H687.93V-98.5H681.89V-100H675.85V-98.5H669.811V-100H663.771V-98.5H657.731V-100H651.691V-98.5H645.652V-100H639.612V-98.5H633.572V-100H627.533V-98.5H621.493V-100H615.453V-98.5H609.413V-100H603.374V-98.5H597.334V-100H591.294V-98.5H585.254V-100H579.215V-98.5H573.175V-100H567.135V-98.5H561.095V-100H555.056V-98.5H549.016V-100H542.976V-98.5H536.937V-100H530.897V-98.5H524.857V-100H518.817V-98.5H512.778V-100H506.738V-98.5H500.698V-100H494.658V-98.5H488.619V-100H482.579V-98.5H476.539V-100H470.499V-98.5H464.46V-100H458.42V-98.5H452.38V-100H446.341V-98.5H440.301V-100H434.261V-98.5H428.221V-100H422.182V-98.5H416.142V-100H410.102V-98.5H404.062V-100H398.023V-98.5H391.983V-100H385.943V-98.5H379.903V-100H373.864V-98.5H367.824V-100H361.784V-98.5H355.744V-100H349.705V-98.5H343.665V-100H337.625V-98.5H331.586V-100H325.546V-98.5H319.506V-100H313.466V-98.5H307.427V-100H301.387V-98.5H295.347V-100H289.307V-98.5H283.268V-100H277.228V-98.5H271.188V-100H265.148V-98.5H259.109V-100H253.069V-98.5H247.029V-100H240.99V-98.5H234.95V-100H228.91V-98.5H222.87V-100H216.831V-98.5H210.791V-100H204.751V-98.5H198.711V-100H192.672V-98.5H186.632V-100H180.592V-98.5H174.552V-100H168.513V-98.5H162.473V-100H156.433V-98.5H150.394V-100H144.354V-98.5H138.314V-100H132.274V-98.5H126.235V-100H120.195V-98.5H114.155V-100H108.115V-98.5H102.076V-100H96.0359V-98.5H89.9962V-100H83.9564V-98.5H77.9167V-100H71.877V-98.5H65.8372V-100H59.7975V-98.5H53.7578V-100H47.718V-98.5H41.6783V-100H35.6385V-98.5H29.5988V-100H23.5591V-98.5H17.5193V-100H11.4796V-98.5H5.43987V-100H-0.599876V-98.5H-6.63961V-100H-12.6794V-98.5H-14.7888L-15.7489 -96.6546L-17.0796 -97.3469L-19.8403 -92.0407L-18.5097 -91.3484L-21.2704 -86.0422L-22.6011 -86.7345L-25.3618 -81.4283L-24.0311 -80.736L-26.7919 -75.4298L-28.1226 -76.1222L-30.8833 -70.8159L-29.5526 -70.1236L-32.3134 -64.8174L-33.644 -65.5098L-36.4048 -60.2036L-35.0741 -59.5112L-37.8348 -54.205L-39.1655 -54.8974L-41.9263 -49.5912L-40.5956 -48.8989L-43.3563 -43.5927L-44.687 -44.285L-47.4478 -38.9788L-46.1171 -38.2865L-48.8778 -32.9803L-50.2085 -33.6726L-52.9692 -28.3664L-51.6386 -27.6741L-54.3993 -22.3679L-55.73 -23.0602L-58.4907 -17.754L-57.1601 -17.0617L-59.9208 -11.7555L-61.2515 -12.4478L-64.0122 -7.14163L-62.6815 -6.44928L-65.4423 -1.1431L-66.7729 -1.83542L-69.5337 3.47076L-68.203 4.16309L-70.9638 9.46927L-72.2944 8.77695L-75.0552 14.0831L-73.7245 14.7755L-76.4852 20.0817L-77.8159 19.3893L-80.5767 24.6955L-79.246 25.3878L-82.0067 30.6941L-83.3374 30.0017L-86.0981 35.3079L-84.7675 36.0002L-87.5282 41.3064L-88.8589 40.6141L-91.6196 45.9203L-90.289 46.6126L-91.0726 48.1187C-90.6064 48.4566 -90.1401 48.7942 -89.6735 49.1315L-90.5524 50.3471C-88.9199 51.5274 -87.2851 52.7039 -85.648 53.8766L-84.7745 52.6571C-83.1391 53.8285 -81.5015 54.9961 -79.8616 56.1599L-80.7297 57.3832C-79.088 58.5482 -77.4441 59.7095 -75.7979 60.8669L-74.9351 59.6398C-73.2907 60.796 -71.644 61.9484 -69.995 63.0969L-70.8524 64.3278C-69.1992 65.4792 -67.5438 66.6269 -65.8861 67.7707L-65.0342 66.5361C-63.3782 67.6787 -61.7201 68.8175 -60.0596 69.9524L-60.9061 71.1908C-59.2439 72.3269 -57.5794 73.4593 -55.9127 74.5878L-55.0717 73.3457C-53.4068 74.473 -51.7398 75.5964 -50.0705 76.716L-50.906 77.9617C-49.2339 79.0832 -47.5595 80.2008 -45.883 81.3146L-45.053 80.0652C-43.377 81.1786 -41.6987 82.2882 -40.0183 83.3939L-40.8429 84.647C-39.1606 85.7539 -37.4762 86.8569 -35.7897 87.9561L-34.9707 86.6994C-33.2859 87.7973 -31.599 88.8914 -29.9099 89.9817L-30.7234 91.2419C-29.0325 92.3333 -27.3394 93.4209 -25.6442 94.5045L-24.8363 93.2407C-23.141 94.3244 -21.4435 95.4043 -19.7438 96.4802L-20.5462 97.7476C-18.8445 98.8249 -17.1407 99.8982 -15.4347 100.968L-14.638 99.6968C-12.9339 100.765 -11.2277 101.829 -9.51944 102.89L-10.3106 104.164C-8.60043 105.226 -6.88818 106.284 -5.17383 107.338L-4.38831 106.06C-2.67502 107.113 -0.959625 108.162 0.757835 109.207L-0.022049 110.489C1.69849 111.536 3.42113 112.579 5.14582 113.619L5.92005 112.334C7.64288 113.372 9.36777 114.406 11.0947 115.437L10.3261 116.725C12.055 117.757 13.7859 118.784 15.5188 119.808L16.2817 118.516C18.0127 119.539 19.7458 120.557 21.4809 121.572L20.7237 122.867C22.4624 123.884 24.2031 124.896 25.9458 125.905L26.6973 124.607C28.4383 125.615 30.1813 126.619 31.9263 127.619L31.1806 128.92C32.9275 129.921 34.6764 130.918 36.4274 131.911L37.1674 130.607C38.9164 131.599 40.6674 132.587 42.4204 133.571L41.6861 134.879C43.4417 135.864 45.1992 136.846 46.9587 137.823L47.6872 136.512C49.4458 137.489 51.2064 138.462 52.969 139.431L52.2462 140.746C54.0107 141.716 55.7771 142.682 57.5455 143.645L58.2624 142.327C60.0288 143.288 61.7972 144.245 63.5675 145.198L62.8563 146.519C64.6286 147.473 66.4027 148.424 68.1788 149.37L68.8841 148.046C70.6595 148.992 72.4369 149.934 74.2162 150.872L73.5167 152.199C75.2982 153.138 77.0815 154.073 78.8667 155.004L79.5603 153.674C81.3435 154.604 83.1287 155.53 84.9157 156.452L84.2279 157.785C86.0168 158.708 87.8076 159.627 89.6003 160.542L90.2822 159.206C92.0735 160.12 93.8666 161.03 95.6616 161.936L94.9856 163.275C96.7833 164.183 98.5829 165.086 100.384 165.986L101.054 164.644C102.854 165.542 104.655 166.437 106.458 167.327L105.794 168.672C107.599 169.564 109.406 170.451 111.215 171.334L111.873 169.986C113.68 170.869 115.488 171.747 117.299 172.621L116.647 173.972C118.46 174.848 120.275 175.72 122.092 176.587L122.738 175.234C124.554 176.1 126.37 176.963 128.189 177.822L127.549 179.178C129.369 180.038 131.192 180.893 133.016 181.744L133.65 180.385C135.472 181.236 137.296 182.082 139.122 182.924L138.494 184.286C140.322 185.13 142.151 185.969 143.983 186.805L144.605 185.44C146.436 186.274 148.267 187.105 150.101 187.931L149.485 189.299C151.32 190.126 153.158 190.95 154.997 191.769L155.607 190.399C157.444 191.217 159.283 192.031 161.123 192.841L160.519 194.214C162.361 195.025 164.205 195.832 166.051 196.635L166.649 195.26C168.494 196.062 170.34 196.86 172.188 197.654L171.595 199.032C173.445 199.827 175.297 200.618 177.15 201.405L177.736 200.024C179.587 200.81 181.44 201.592 183.295 202.369L182.715 203.753C184.571 204.531 186.429 205.306 188.289 206.076L188.863 204.69C190.721 205.459 192.581 206.225 194.442 206.986L193.874 208.375C195.738 209.137 197.603 209.895 199.47 210.649L200.032 209.258C201.896 210.011 203.763 210.76 205.631 211.505L205.075 212.899C206.945 213.644 208.817 214.386 210.69 215.123L211.239 213.728C213.11 214.464 214.983 215.197 216.857 215.925L216.314 217.323C218.191 218.053 220.069 218.778 221.949 219.499L222.486 218.098C224.364 218.819 226.243 219.535 228.124 220.247L227.593 221.649C229.476 222.362 231.36 223.071 233.246 223.775L233.771 222.37C235.655 223.074 237.54 223.773 239.427 224.468L238.909 225.876C240.798 226.572 242.688 227.264 244.58 227.952L245.093 226.542C246.983 227.229 248.875 227.912 250.768 228.591L250.261 230.003C252.157 230.682 254.053 231.357 255.951 232.028L256.451 230.614C258.347 231.285 260.245 231.951 262.144 232.613L261.65 234.029C263.551 234.692 265.453 235.35 267.357 236.005L267.845 234.586C269.747 235.24 271.65 235.889 273.555 236.535L273.073 237.955C274.98 238.601 276.888 239.243 278.798 239.881L279.273 238.458C281.181 239.095 283.09 239.727 285 240.356L284.531 241.781C286.444 242.41 288.357 243.035 290.272 243.656L290.735 242.229C292.648 242.849 294.562 243.465 296.478 244.076L296.022 245.505C297.94 246.117 299.859 246.725 301.78 247.329L302.229 245.898C304.148 246.502 306.068 247.101 307.989 247.695L307.545 249.128C309.468 249.724 311.393 250.315 313.319 250.902L313.756 249.467C315.68 250.053 317.605 250.635 319.531 251.213L319.1 252.65C321.028 253.228 322.958 253.802 324.889 254.372L325.313 252.934C327.242 253.503 329.172 254.068 331.103 254.629L330.685 256.069C332.618 256.631 334.553 257.188 336.489 257.741L336.901 256.299C338.835 256.851 340.77 257.399 342.706 257.943L342.3 259.387C344.238 259.932 346.178 260.472 348.118 261.008L348.518 259.562C350.456 260.097 352.396 260.628 354.336 261.155L353.943 262.602C355.886 263.13 357.83 263.653 359.776 264.171L360.162 262.722C362.105 263.24 364.05 263.754 365.995 264.264L365.615 265.715C367.563 266.225 369.512 266.731 371.462 267.233L371.835 265.78C373.783 266.281 375.731 266.778 377.681 267.27L377.313 268.725C379.265 269.218 381.218 269.706 383.172 270.191L383.533 268.735C385.485 269.219 387.438 269.698 389.392 270.174L389.038 271.631C390.994 272.107 392.952 272.579 394.91 273.046L395.258 271.587C397.214 272.054 399.171 272.516 401.13 272.974L400.788 274.435C402.748 274.893 404.709 275.347 406.671 275.797L407.007 274.335C408.967 274.785 410.928 275.23 412.89 275.671L412.561 277.134C414.525 277.576 416.491 278.013 418.457 278.445L418.78 276.98C420.744 277.413 422.709 277.841 424.676 278.264L424.36 279.731C426.327 280.154 428.296 280.574 430.266 280.989L430.575 279.522C432.543 279.936 434.511 280.347 436.481 280.753L436.178 282.222C438.149 282.629 440.122 283.031 442.096 283.429L442.392 281.959C444.364 282.356 446.336 282.75 448.31 283.139L448.02 284.61C449.995 285 451.971 285.384 453.948 285.765L454.232 284.292C456.206 284.672 458.181 285.048 460.157 285.419L459.88 286.894C461.859 287.265 463.838 287.633 465.818 287.996L466.089 286.521C468.067 286.884 470.046 287.242 472.026 287.596L471.762 289.073C473.744 289.427 475.727 289.777 477.711 290.123L477.969 288.645C479.949 288.991 481.931 289.332 483.913 289.668L483.662 291.147C485.646 291.484 487.632 291.816 489.618 292.145L489.863 290.665C491.847 290.993 493.832 291.316 495.817 291.635L495.579 293.116C497.567 293.436 499.556 293.751 501.546 294.062L501.778 292.58C503.764 292.89 505.752 293.196 507.74 293.498L507.515 294.981C509.505 295.283 511.496 295.58 513.487 295.873L513.706 294.389C515.695 294.682 517.685 294.971 519.676 295.255L519.464 296.74C521.457 297.024 523.451 297.304 525.446 297.58L525.652 296.094C527.644 296.37 529.637 296.641 531.631 296.907L531.432 298.394C533.427 298.661 535.422 298.923 537.419 299.181L537.611 297.694C539.605 297.952 541.6 298.205 543.595 298.454L543.409 299.942C545.407 300.192 547.406 300.437 549.405 300.677L549.584 299.188C551.581 299.428 553.579 299.664 555.577 299.896L555.405 301.386C557.404 301.617 559.404 301.844 561.405 302.067L561.571 300.577C563.569 300.799 565.568 301.017 567.567 301.231L567.408 302.723C569.409 302.937 571.411 303.146 573.414 303.352L573.567 301.859C575.568 302.064 577.569 302.265 579.572 302.461L579.425 303.954C581.429 304.151 583.434 304.343 585.439 304.53L585.579 303.037C587.58 303.224 589.582 303.407 591.585 303.586L591.451 305.08C593.456 305.259 595.462 305.433 597.468 305.603L597.594 304.108C599.598 304.278 601.602 304.443 603.607 304.604L603.487 306.1C605.495 306.261 607.503 306.417 609.511 306.57L609.624 305.074C611.629 305.226 613.635 305.374 615.641 305.517L615.534 307.013C617.541 307.157 619.549 307.296 621.557 307.43L621.657 305.934C623.664 306.068 625.67 306.198 627.678 306.324L627.584 307.821C629.594 307.947 631.604 308.068 633.614 308.185L633.701 306.687C635.709 306.804 637.718 306.917 639.727 307.025L639.647 308.522C641.656 308.63 643.666 308.734 645.676 308.833L645.75 307.335C647.758 307.434 649.766 307.529 651.775 307.619L651.708 309.117C653.719 309.208 655.73 309.294 657.742 309.375L657.803 307.876C659.813 307.958 661.823 308.035 663.834 308.107L663.78 309.606C665.792 309.679 667.804 309.747 669.816 309.811L669.863 308.312C671.872 308.376 673.882 308.435 675.892 308.49L675.851 309.989C677.863 310.044 679.875 310.095 681.888 310.141L681.922 308.641C683.933 308.687 685.944 308.729 687.956 308.766L687.928 310.266C689.942 310.303 691.956 310.336 693.97 310.364L693.992 308.864C696.001 308.892 698.011 308.916 700.021 308.936L700.006 310.436C702.018 310.455 704.031 310.47 706.044 310.481L706.052 308.981C708.063 308.991 710.074 308.998 712.086 308.999L712.084 310.499C714.098 310.501 716.112 310.499 718.127 310.492L718.122 308.992C719.128 308.988 720.134 308.983 721.14 308.978C722.147 308.972 723.153 308.965 724.159 308.957L724.171 310.457C726.186 310.441 728.2 310.421 730.214 310.396L730.195 308.896C732.206 308.871 734.217 308.842 736.228 308.808L736.253 310.308C738.266 310.274 740.278 310.236 742.29 310.194L742.259 308.694C744.268 308.652 746.278 308.605 748.286 308.554L748.325 310.053C750.339 310.002 752.352 309.946 754.365 309.886L754.321 308.386C756.332 308.326 758.342 308.261 760.352 308.192L760.404 309.691C762.416 309.622 764.428 309.549 766.439 309.471L766.381 307.972C768.39 307.894 770.398 307.812 772.407 307.725L772.471 309.224C774.483 309.137 776.494 309.046 778.504 308.95L778.433 307.452C780.443 307.356 782.452 307.256 784.461 307.152L784.539 308.65C786.55 308.545 788.561 308.436 790.57 308.323L790.486 306.825C792.494 306.712 794.501 306.595 796.508 306.473L796.599 307.97C798.607 307.848 800.616 307.721 802.623 307.59L802.526 306.093C804.534 305.962 806.541 305.827 808.548 305.687L808.652 307.184C810.661 307.044 812.67 306.899 814.678 306.75L814.567 305.255C816.573 305.106 818.578 304.953 820.582 304.796L820.7 306.291C822.706 306.134 824.712 305.972 826.718 305.805L826.594 304.31C828.598 304.144 830.602 303.974 832.605 303.799L832.735 305.293C834.742 305.118 836.748 304.938 838.753 304.754L838.616 303.26C840.619 303.076 842.621 302.888 844.623 302.695L844.767 304.188C846.771 303.995 848.774 303.798 850.776 303.596L850.626 302.104C852.626 301.903 854.626 301.697 856.625 301.487L856.782 302.978C858.785 302.768 860.787 302.553 862.789 302.333L862.626 300.842C864.625 300.623 866.624 300.4 868.622 300.172L868.792 301.662C870.793 301.434 872.793 301.201 874.792 300.964L874.615 299.475C876.612 299.238 878.608 298.997 880.603 298.752L880.786 300.24C882.784 299.995 884.782 299.744 886.779 299.49L886.589 298.002C888.585 297.748 890.58 297.489 892.574 297.226L892.77 298.713C894.766 298.45 896.762 298.182 898.756 297.91L898.554 296.423C900.546 296.152 902.538 295.875 904.529 295.595L904.738 297.08C906.731 296.799 908.724 296.514 910.715 296.225L910.499 294.74C912.49 294.451 914.48 294.157 916.469 293.859L916.691 295.342C918.683 295.044 920.674 294.741 922.663 294.433L922.435 292.951C924.422 292.644 926.409 292.333 928.395 292.017L928.63 293.499C930.618 293.183 932.605 292.862 934.592 292.538L934.35 291.057C936.335 290.733 938.318 290.404 940.301 290.071L940.55 291.551C942.536 291.217 944.521 290.879 946.505 290.537L946.25 289.059C948.232 288.717 950.214 288.371 952.194 288.02L952.455 289.497C954.438 289.146 956.419 288.791 958.4 288.431L958.131 286.955C960.11 286.596 962.087 286.233 964.064 285.865L964.338 287.339C966.318 286.971 968.297 286.598 970.275 286.221L969.994 284.748C971.969 284.371 973.944 283.99 975.918 283.604L976.206 285.077C978.182 284.691 980.157 284.301 982.131 283.906L981.837 282.435C983.809 282.041 985.78 281.643 987.75 281.24L988.05 282.71C990.022 282.307 991.994 281.899 993.964 281.487L993.657 280.019C995.626 279.608 997.594 279.192 999.561 278.772L999.875 280.239C1001.84 279.818 1003.81 279.393 1005.78 278.964L1005.46 277.498C1007.42 277.07 1009.39 276.637 1011.35 276.199L1011.68 277.663C1013.64 277.226 1015.6 276.784 1017.57 276.337L1017.23 274.875C1019.2 274.428 1021.16 273.978 1023.12 273.523L1023.45 274.985C1025.42 274.529 1027.38 274.07 1029.34 273.606L1028.99 272.146C1030.95 271.683 1032.9 271.216 1034.86 270.744L1035.21 272.202C1037.17 271.73 1039.12 271.253 1041.08 270.772L1040.72 269.315C1042.67 268.835 1044.62 268.35 1046.57 267.861L1046.94 269.316C1048.89 268.826 1050.84 268.333 1052.79 267.834L1052.42 266.381C1054.37 265.883 1056.32 265.381 1058.27 264.875L1058.64 266.327C1060.59 265.82 1062.54 265.309 1064.48 264.794L1064.1 263.344C1066.04 262.829 1067.99 262.31 1069.93 261.787L1070.32 263.235C1072.26 262.711 1074.21 262.183 1076.15 261.65L1075.75 260.204C1077.69 259.672 1079.63 259.136 1081.57 258.595L1081.97 260.04C1083.91 259.499 1085.85 258.954 1087.78 258.404L1087.37 256.961C1089.31 256.413 1091.24 255.859 1093.17 255.302L1093.59 256.743C1095.52 256.185 1097.46 255.623 1099.39 255.056L1098.97 253.617C1100.9 253.051 1102.82 252.481 1104.75 251.906L1105.18 253.344C1107.11 252.769 1109.04 252.189 1110.97 251.606L1110.53 250.17C1112.46 249.587 1114.38 249 1116.3 248.409L1116.74 249.843C1118.67 249.251 1120.59 248.654 1122.51 248.054L1122.06 246.622C1123.98 246.022 1125.9 245.418 1127.82 244.81L1128.27 246.24C1130.19 245.631 1132.11 245.018 1134.02 244.4L1133.56 242.973C1135.48 242.356 1137.39 241.735 1139.3 241.11L1139.77 242.536C1141.68 241.91 1143.59 241.28 1145.51 240.646L1145.03 239.222C1146.94 238.589 1148.85 237.951 1150.75 237.309L1151.23 238.731C1153.14 238.088 1155.05 237.441 1156.95 236.79L1156.47 235.371C1158.37 234.72 1160.27 234.066 1162.17 233.407L1162.66 234.825C1164.57 234.165 1166.47 233.502 1168.37 232.834L1167.87 231.419C1169.77 230.752 1171.66 230.08 1173.56 229.405L1174.06 230.818C1175.96 230.142 1177.85 229.462 1179.74 228.777L1179.23 227.367C1181.12 226.683 1183.01 225.995 1184.9 225.303L1185.42 226.711C1187.31 226.019 1189.2 225.322 1191.09 224.621L1190.56 223.215C1192.45 222.514 1194.33 221.81 1196.21 221.101L1196.74 222.505C1198.63 221.795 1200.51 221.082 1202.39 220.364L1201.86 218.963C1203.73 218.246 1205.61 217.525 1207.49 216.8L1208.03 218.199C1209.91 217.473 1211.78 216.743 1213.66 216.009L1213.11 214.612C1214.98 213.879 1216.85 213.141 1218.72 212.399L1219.28 213.794C1221.15 213.051 1223.02 212.305 1224.89 211.554L1224.33 210.162C1226.19 209.412 1228.06 208.658 1229.92 207.9L1230.48 209.29C1232.35 208.531 1234.21 207.768 1236.07 207.001L1235.5 205.614C1237.36 204.848 1239.22 204.077 1241.07 203.303L1241.65 204.687C1243.51 203.912 1245.37 203.133 1247.22 202.349L1246.64 200.967C1248.49 200.185 1250.34 199.398 1252.19 198.607L1252.78 199.986C1254.63 199.195 1256.48 198.399 1258.33 197.6L1257.73 196.223C1259.58 195.424 1261.42 194.621 1263.26 193.814L1263.86 195.188C1265.71 194.38 1267.55 193.568 1269.39 192.752L1268.78 191.381C1270.62 190.566 1272.46 189.747 1274.29 188.923L1274.91 190.292C1276.74 189.468 1278.58 188.64 1280.41 187.808L1279.79 186.442C1281.62 185.611 1283.45 184.776 1285.28 183.937L1285.91 185.3C1287.74 184.459 1289.56 183.615 1291.39 182.767L1290.76 181.407C1292.58 180.559 1294.4 179.708 1296.22 178.852L1296.86 180.21C1298.68 179.353 1300.5 178.493 1302.32 177.629L1301.68 176.274C1303.49 175.411 1305.31 174.544 1307.12 173.672L1307.77 175.024C1309.59 174.152 1311.4 173.276 1313.21 172.396L1312.55 171.047C1314.36 170.167 1316.17 169.284 1317.97 168.396L1318.64 169.742C1320.44 168.854 1322.25 167.962 1324.05 167.065L1323.38 165.722C1325.18 164.827 1326.98 163.928 1328.78 163.025L1329.45 164.366C1331.25 163.462 1333.05 162.554 1334.84 161.642L1334.16 160.304C1335.95 159.393 1337.75 158.478 1339.53 157.559L1340.22 158.894C1342.01 157.973 1343.8 157.049 1345.59 156.121L1344.9 154.79C1346.68 153.863 1348.46 152.933 1350.24 151.998L1350.94 153.326C1352.72 152.391 1354.5 151.452 1356.28 150.508L1355.58 149.183C1357.35 148.241 1359.13 147.294 1360.9 146.344L1361.61 147.666C1363.39 146.715 1365.16 145.759 1366.93 144.8L1366.21 143.481C1367.98 142.523 1369.75 141.561 1371.51 140.595L1372.23 141.91C1374 140.944 1375.76 139.973 1377.52 138.999L1376.8 137.686C1378.56 136.713 1380.31 135.736 1382.07 134.754L1382.8 136.064C1384.56 135.081 1386.31 134.095 1388.07 133.104L1387.33 131.798C1389.08 130.809 1390.83 129.816 1392.58 128.819L1393.32 130.122C1395.07 129.124 1396.81 128.122 1398.56 127.117L1397.81 125.817C1399.55 124.813 1401.29 123.805 1403.03 122.793L1403.78 124.089C1405.52 123.076 1407.26 122.059 1409 121.038L1408.23 119.746C1409.97 118.726 1411.7 117.702 1413.43 116.674L1414.2 117.964C1415.93 116.935 1417.66 115.903 1419.38 114.866L1418.61 113.58C1420.33 112.545 1422.05 111.507 1423.77 110.465L1424.55 111.748C1426.27 110.704 1427.99 109.657 1429.71 108.606L1428.93 107.326C1430.64 106.276 1432.35 105.222 1434.06 104.164L1434.85 105.44C1436.57 104.381 1438.28 103.318 1439.98 102.251L1439.19 100.979C1440.9 99.9141 1442.6 98.8453 1444.3 97.7726L1445.1 99.0414C1446.8 97.968 1448.5 96.8908 1450.2 95.8097L1449.39 94.5444C1451.09 93.4644 1452.78 92.3806 1454.48 91.2929L1455.29 92.5546C1456.98 91.4657 1458.67 90.3729 1460.36 89.2762L1459.55 88.0181C1461.23 86.9228 1462.92 85.8236 1464.6 84.7205L1465.42 85.975C1467.11 84.8721 1468.79 83.7652 1470.46 82.6545L1469.64 81.4036C1471.31 80.2942 1472.99 79.1808 1474.66 78.0637L1475.49 79.3109C1477.17 78.1925 1478.84 77.0703 1480.51 75.9442L1479.67 74.7006C1481.34 73.5758 1483 72.4471 1484.66 71.3145L1485.51 72.5544C1487.17 71.4215 1488.83 70.2848 1490.49 69.1443L1489.64 67.9081C1491.3 66.7695 1492.95 65.6271 1494.61 64.4809L1495.46 65.7132C1497.11 64.5658 1498.77 63.4144 1500.42 62.2593L1499.55 61.0307C1501.2 59.8769 1502.85 58.7192 1504.49 57.5577L1505.36 58.7825C1507 57.6198 1508.64 56.4533 1510.28 55.283L1509.41 54.062C1511.05 52.8947 1512.68 51.7236 1514.31 50.5486L1515.19 51.7657C1516.82 50.5896 1518.45 49.4096 1520.08 48.2258L1519.2 47.0126C1520.82 45.8301 1522.45 44.6439 1524.07 43.4538L1524.96 44.6632C1526.58 43.4719 1528.2 42.2767 1529.82 41.0779L1528.93 39.8724C1529.35 39.5634 1529.76 39.2542 1530.18 38.9447C1530.23 38.9074 1530.28 38.8702 1530.33 38.8329L1529.53 37.2867Z" stroke="#272727" stroke-width="3" stroke-dasharray="6 6"/>
<circle cx="733" cy="310.5" r="33.5" transform="rotate(-180 733 310.5)" fill="#DED4C3" stroke="#272727" stroke-width="3"/>
<circle cx="733" cy="310.5" r="14" transform="rotate(-180 733 310.5)" fill="#272727"/>
<circle cx="388" cy="269" r="25.5" transform="rotate(-180 388 269)" fill="#DED4C3" stroke="#272727" stroke-width="3"/>
<circle cx="388" cy="269" r="13" transform="rotate(-180 388 269)" fill="#272727"/>
<circle cx="1052.7" cy="267.5" r="25.5" transform="rotate(-180 1052.7 267.5)" fill="#DED4C3" stroke="#272727" stroke-width="3"/>
<circle cx="1052.7" cy="267.5" r="13" transform="rotate(-180 1052.7 267.5)" fill="#272727"/>
</svg>
