<svg width="32" height="32" viewBox="0 0 32 32" fill="none" xmlns="http://www.w3.org/2000/svg">
<path d="M2 15C2 14.3812 2.04021 13.7712 2.11828 13.1727L3.10988 13.3021C3.25942 12.1556 3.55833 11.0561 3.98645 10.0238L3.06272 9.6407C3.53493 8.502 4.15282 7.43953 4.89289 6.47648L5.68581 7.08581C6.37787 6.18523 7.18523 5.37787 8.08581 4.68581L7.47648 3.89289C8.43953 3.15282 9.50199 2.53493 10.6407 2.06272L11.0238 2.98645C12.0561 2.55834 13.1556 2.25942 14.3021 2.10988L14.1727 1.11828C14.7712 1.04021 15.3812 1 16 1C16.6188 1 17.2288 1.04021 17.8273 1.11828L17.6979 2.10988C18.8444 2.25942 19.9439 2.55834 20.9762 2.98645L21.3593 2.06272C22.498 2.53492 23.5605 3.15282 24.5235 3.89289L23.9142 4.68581C24.8148 5.37787 25.6221 6.18523 26.3142 7.08581L27.1071 6.47648C27.8472 7.43953 28.4651 8.50199 28.9373 9.6407L28.0136 10.0238C28.4417 11.0561 28.7406 12.1556 28.8901 13.3021L29.8817 13.1727C29.9598 13.7712 30 14.3812 30 15C30 15.6188 29.9598 16.2288 29.8817 16.8273L28.8901 16.6979C28.7406 17.8444 28.4417 18.9439 28.0136 19.9762L28.9373 20.3593C28.4651 21.498 27.8472 22.5605 27.1071 23.5235L26.3142 22.9142C25.6221 23.8148 24.8148 24.6221 23.9142 25.3142L24.5235 26.1071C23.5605 26.8472 22.498 27.4651 21.3593 27.9373L20.9762 27.0136C19.9439 27.4417 18.8444 27.7406 17.6979 27.8901L17.8273 28.8817C17.2288 28.9598 16.6188 29 16 29C15.3812 29 14.7712 28.9598 14.1727 28.8817L14.3021 27.8901C13.1556 27.7406 12.0561 27.4417 11.0238 27.0136L10.6407 27.9373C9.502 27.4651 8.43953 26.8472 7.47648 26.1071L8.08581 25.3142C7.18523 24.6221 6.37787 23.8148 5.68581 22.9142L4.89289 23.5235C4.15282 22.5605 3.53493 21.498 3.06272 20.3593L3.98645 19.9762C3.55834 18.9439 3.25942 17.8444 3.10988 16.6979L2.11828 16.8273C2.04021 16.2288 2 15.6188 2 15Z" fill="#DED4C3" stroke="#272727" stroke-width="2" stroke-dasharray="4 4"/>
</svg>
